<?xml version="1.0" encoding="UTF-8"?>
<svg width="1078px" height="767px" viewBox="0 0 1078 767" version="1.1" xmlns="http://www.w3.org/2000/svg" xmlns:xlink="http://www.w3.org/1999/xlink">
    <title>ASimpleDashboard</title>
    <defs>
        <rect id="path-1" x="0" y="0" width="250" height="153" rx="4"></rect>
        <filter x="-6.8%" y="-9.8%" width="113.6%" height="122.2%" filterUnits="objectBoundingBox" id="filter-2">
            <feMorphology radius="1" operator="dilate" in="SourceAlpha" result="shadowSpreadOuter1"></feMorphology>
            <feOffset dx="0" dy="2" in="shadowSpreadOuter1" result="shadowOffsetOuter1"></feOffset>
            <feGaussianBlur stdDeviation="5" in="shadowOffsetOuter1" result="shadowBlurOuter1"></feGaussianBlur>
            <feComposite in="shadowBlurOuter1" in2="SourceAlpha" operator="out" result="shadowBlurOuter1"></feComposite>
            <feColorMatrix values="0 0 0 0 0.278431373   0 0 0 0 0.309803922   0 0 0 0 0.380392157  0 0 0 0.1 0" type="matrix" in="shadowBlurOuter1"></feColorMatrix>
        </filter>
        <rect id="path-3" x="0" y="0" width="250" height="153" rx="4"></rect>
        <filter x="-6.8%" y="-9.8%" width="113.6%" height="122.2%" filterUnits="objectBoundingBox" id="filter-4">
            <feMorphology radius="1" operator="dilate" in="SourceAlpha" result="shadowSpreadOuter1"></feMorphology>
            <feOffset dx="0" dy="2" in="shadowSpreadOuter1" result="shadowOffsetOuter1"></feOffset>
            <feGaussianBlur stdDeviation="5" in="shadowOffsetOuter1" result="shadowBlurOuter1"></feGaussianBlur>
            <feComposite in="shadowBlurOuter1" in2="SourceAlpha" operator="out" result="shadowBlurOuter1"></feComposite>
            <feColorMatrix values="0 0 0 0 0.278431373   0 0 0 0 0.309803922   0 0 0 0 0.380392157  0 0 0 0.1 0" type="matrix" in="shadowBlurOuter1"></feColorMatrix>
        </filter>
        <rect id="path-5" x="0" y="0" width="250" height="153" rx="4"></rect>
        <filter x="-6.8%" y="-9.8%" width="113.6%" height="122.2%" filterUnits="objectBoundingBox" id="filter-6">
            <feMorphology radius="1" operator="dilate" in="SourceAlpha" result="shadowSpreadOuter1"></feMorphology>
            <feOffset dx="0" dy="2" in="shadowSpreadOuter1" result="shadowOffsetOuter1"></feOffset>
            <feGaussianBlur stdDeviation="5" in="shadowOffsetOuter1" result="shadowBlurOuter1"></feGaussianBlur>
            <feComposite in="shadowBlurOuter1" in2="SourceAlpha" operator="out" result="shadowBlurOuter1"></feComposite>
            <feColorMatrix values="0 0 0 0 0.278431373   0 0 0 0 0.309803922   0 0 0 0 0.380392157  0 0 0 0.1 0" type="matrix" in="shadowBlurOuter1"></feColorMatrix>
        </filter>
        <rect id="path-7" x="0" y="0" width="36" height="26" rx="3"></rect>
        <filter x="-33.3%" y="-46.2%" width="166.7%" height="192.3%" filterUnits="objectBoundingBox" id="filter-8">
            <feOffset dx="0" dy="0" in="SourceAlpha" result="shadowOffsetOuter1"></feOffset>
            <feGaussianBlur stdDeviation="4" in="shadowOffsetOuter1" result="shadowBlurOuter1"></feGaussianBlur>
            <feComposite in="shadowBlurOuter1" in2="SourceAlpha" operator="out" result="shadowBlurOuter1"></feComposite>
            <feColorMatrix values="0 0 0 0 0.278431373   0 0 0 0 0.309803922   0 0 0 0 0.380392157  0 0 0 0.1 0" type="matrix" in="shadowBlurOuter1"></feColorMatrix>
        </filter>
        <rect id="path-9" x="0" y="0" width="36" height="26" rx="3"></rect>
        <filter x="-33.3%" y="-46.2%" width="166.7%" height="192.3%" filterUnits="objectBoundingBox" id="filter-10">
            <feOffset dx="0" dy="0" in="SourceAlpha" result="shadowOffsetOuter1"></feOffset>
            <feGaussianBlur stdDeviation="4" in="shadowOffsetOuter1" result="shadowBlurOuter1"></feGaussianBlur>
            <feComposite in="shadowBlurOuter1" in2="SourceAlpha" operator="out" result="shadowBlurOuter1"></feComposite>
            <feColorMatrix values="0 0 0 0 0.278431373   0 0 0 0 0.309803922   0 0 0 0 0.380392157  0 0 0 0.1 0" type="matrix" in="shadowBlurOuter1"></feColorMatrix>
        </filter>
        <rect id="path-11" x="0" y="0" width="26" height="26" rx="3"></rect>
        <filter x="-46.2%" y="-46.2%" width="192.3%" height="192.3%" filterUnits="objectBoundingBox" id="filter-12">
            <feOffset dx="0" dy="0" in="SourceAlpha" result="shadowOffsetOuter1"></feOffset>
            <feGaussianBlur stdDeviation="4" in="shadowOffsetOuter1" result="shadowBlurOuter1"></feGaussianBlur>
            <feComposite in="shadowBlurOuter1" in2="SourceAlpha" operator="out" result="shadowBlurOuter1"></feComposite>
            <feColorMatrix values="0 0 0 0 0.278431373   0 0 0 0 0.309803922   0 0 0 0 0.380392157  0 0 0 0.1 0" type="matrix" in="shadowBlurOuter1"></feColorMatrix>
        </filter>
        <rect id="path-13" x="2" y="2" width="26" height="26" rx="3"></rect>
        <filter x="-46.2%" y="-46.2%" width="192.3%" height="192.3%" filterUnits="objectBoundingBox" id="filter-14">
            <feOffset dx="0" dy="0" in="SourceAlpha" result="shadowOffsetOuter1"></feOffset>
            <feGaussianBlur stdDeviation="4" in="shadowOffsetOuter1" result="shadowBlurOuter1"></feGaussianBlur>
            <feComposite in="shadowBlurOuter1" in2="SourceAlpha" operator="out" result="shadowBlurOuter1"></feComposite>
            <feColorMatrix values="0 0 0 0 0.278431373   0 0 0 0 0.309803922   0 0 0 0 0.380392157  0 0 0 0.1 0" type="matrix" in="shadowBlurOuter1"></feColorMatrix>
        </filter>
        <circle id="path-15" cx="4" cy="4" r="4"></circle>
        <filter x="-100.0%" y="-75.0%" width="300.0%" height="300.0%" filterUnits="objectBoundingBox" id="filter-16">
            <feMorphology radius="1" operator="dilate" in="SourceAlpha" result="shadowSpreadOuter1"></feMorphology>
            <feOffset dx="0" dy="2" in="shadowSpreadOuter1" result="shadowOffsetOuter1"></feOffset>
            <feGaussianBlur stdDeviation="2" in="shadowOffsetOuter1" result="shadowBlurOuter1"></feGaussianBlur>
            <feComposite in="shadowBlurOuter1" in2="SourceAlpha" operator="out" result="shadowBlurOuter1"></feComposite>
            <feColorMatrix values="0 0 0 0 0.278431373   0 0 0 0 0.309803922   0 0 0 0 0.380392157  0 0 0 0.05 0" type="matrix" in="shadowBlurOuter1"></feColorMatrix>
        </filter>
        <rect id="path-17" x="4" y="4" width="774" height="252" rx="4"></rect>
        <filter x="-1.8%" y="-5.6%" width="103.6%" height="111.1%" filterUnits="objectBoundingBox" id="filter-18">
            <feMorphology radius="2" operator="dilate" in="SourceAlpha" result="shadowSpreadOuter1"></feMorphology>
            <feOffset dx="0" dy="0" in="shadowSpreadOuter1" result="shadowOffsetOuter1"></feOffset>
            <feGaussianBlur stdDeviation="4" in="shadowOffsetOuter1" result="shadowBlurOuter1"></feGaussianBlur>
            <feComposite in="shadowBlurOuter1" in2="SourceAlpha" operator="out" result="shadowBlurOuter1"></feComposite>
            <feColorMatrix values="0 0 0 0 0   0 0 0 0 0   0 0 0 0 0  0 0 0 0.1 0" type="matrix" in="shadowBlurOuter1"></feColorMatrix>
        </filter>
        <rect id="path-19" x="0" y="0" width="36" height="26" rx="3"></rect>
        <filter x="-25.0%" y="-34.6%" width="150.0%" height="169.2%" filterUnits="objectBoundingBox" id="filter-20">
            <feOffset dx="0" dy="0" in="SourceAlpha" result="shadowOffsetOuter1"></feOffset>
            <feGaussianBlur stdDeviation="3" in="shadowOffsetOuter1" result="shadowBlurOuter1"></feGaussianBlur>
            <feComposite in="shadowBlurOuter1" in2="SourceAlpha" operator="out" result="shadowBlurOuter1"></feComposite>
            <feColorMatrix values="0 0 0 0 0.278431373   0 0 0 0 0.309803922   0 0 0 0 0.380392157  0 0 0 0.1 0" type="matrix" in="shadowBlurOuter1"></feColorMatrix>
        </filter>
        <rect id="path-21" x="0" y="0" width="26" height="26" rx="3"></rect>
        <filter x="-34.6%" y="-34.6%" width="169.2%" height="169.2%" filterUnits="objectBoundingBox" id="filter-22">
            <feOffset dx="0" dy="0" in="SourceAlpha" result="shadowOffsetOuter1"></feOffset>
            <feGaussianBlur stdDeviation="3" in="shadowOffsetOuter1" result="shadowBlurOuter1"></feGaussianBlur>
            <feComposite in="shadowBlurOuter1" in2="SourceAlpha" operator="out" result="shadowBlurOuter1"></feComposite>
            <feColorMatrix values="0 0 0 0 0.278431373   0 0 0 0 0.309803922   0 0 0 0 0.380392157  0 0 0 0.1 0" type="matrix" in="shadowBlurOuter1"></feColorMatrix>
        </filter>
        <rect id="path-23" x="0" y="0" width="26" height="26" rx="3"></rect>
        <filter x="-34.6%" y="-34.6%" width="169.2%" height="169.2%" filterUnits="objectBoundingBox" id="filter-24">
            <feOffset dx="0" dy="0" in="SourceAlpha" result="shadowOffsetOuter1"></feOffset>
            <feGaussianBlur stdDeviation="3" in="shadowOffsetOuter1" result="shadowBlurOuter1"></feGaussianBlur>
            <feComposite in="shadowBlurOuter1" in2="SourceAlpha" operator="out" result="shadowBlurOuter1"></feComposite>
            <feColorMatrix values="0 0 0 0 0.278431373   0 0 0 0 0.309803922   0 0 0 0 0.380392157  0 0 0 0.1 0" type="matrix" in="shadowBlurOuter1"></feColorMatrix>
        </filter>
        <rect id="path-25" x="0" y="0" width="774" height="252" rx="4"></rect>
        <filter x="-1.7%" y="-5.2%" width="103.4%" height="110.3%" filterUnits="objectBoundingBox" id="filter-26">
            <feMorphology radius="1" operator="dilate" in="SourceAlpha" result="shadowSpreadOuter1"></feMorphology>
            <feOffset dx="0" dy="0" in="shadowSpreadOuter1" result="shadowOffsetOuter1"></feOffset>
            <feGaussianBlur stdDeviation="4" in="shadowOffsetOuter1" result="shadowBlurOuter1"></feGaussianBlur>
            <feComposite in="shadowBlurOuter1" in2="SourceAlpha" operator="out" result="shadowBlurOuter1"></feComposite>
            <feColorMatrix values="0 0 0 0 0   0 0 0 0 0   0 0 0 0 0  0 0 0 0.1 0" type="matrix" in="shadowBlurOuter1"></feColorMatrix>
        </filter>
        <path d="M23.1023392,175 L91.5487912,168.045843 C91.8495436,168.015286 92.1510575,167.992758 92.4530112,167.97828 L164.642294,164.51715 C164.880738,164.505718 165.118915,164.489265 165.356667,164.467801 L237,158 L237,158 L312.558951,147.412122 C314.504915,147.139439 316.388873,146.531447 318.127131,145.615156 L377.780427,114.170008 C379.252171,113.394205 380.829826,112.838645 382.46294,112.521095 L450.684849,99.2557239 C451.560259,99.0855052 452.420918,98.8466656 453.258856,98.5414166 L522,73.5 L522,73.5 L596.20917,43.9133374 C597.728438,43.3076161 599.327168,42.9243115 600.955929,42.7752745 L675,36 L675,36 L737,-7.95807864e-13" id="path-27"></path>
        <filter x="-1.4%" y="-5.9%" width="102.9%" height="111.7%" filterUnits="objectBoundingBox" id="filter-28">
            <feMorphology radius="1" operator="dilate" in="SourceAlpha" result="shadowSpreadOuter1"></feMorphology>
            <feOffset dx="0" dy="0" in="shadowSpreadOuter1" result="shadowOffsetOuter1"></feOffset>
            <feMorphology radius="1" operator="erode" in="SourceAlpha" result="shadowInner"></feMorphology>
            <feOffset dx="0" dy="0" in="shadowInner" result="shadowInner"></feOffset>
            <feComposite in="shadowOffsetOuter1" in2="shadowInner" operator="out" result="shadowOffsetOuter1"></feComposite>
            <feGaussianBlur stdDeviation="3" in="shadowOffsetOuter1" result="shadowBlurOuter1"></feGaussianBlur>
            <feColorMatrix values="0 0 0 0 0.278431373   0 0 0 0 0.309803922   0 0 0 0 0.380392157  0 0 0 0.05 0" type="matrix" in="shadowBlurOuter1"></feColorMatrix>
        </filter>
        <rect id="path-29" x="0" y="0" width="281" height="722"></rect>
        <filter x="-5.3%" y="-2.1%" width="110.7%" height="104.2%" filterUnits="objectBoundingBox" id="filter-30">
            <feOffset dx="0" dy="0" in="SourceAlpha" result="shadowOffsetOuter1"></feOffset>
            <feGaussianBlur stdDeviation="5" in="shadowOffsetOuter1" result="shadowBlurOuter1"></feGaussianBlur>
            <feComposite in="shadowBlurOuter1" in2="SourceAlpha" operator="out" result="shadowBlurOuter1"></feComposite>
            <feColorMatrix values="0 0 0 0 0.278431373   0 0 0 0 0.309803922   0 0 0 0 0.380392157  0 0 0 0.2 0" type="matrix" in="shadowBlurOuter1"></feColorMatrix>
        </filter>
        <rect id="path-31" x="114" y="160" width="52" height="52" rx="4"></rect>
        <filter x="-17.3%" y="-17.3%" width="134.6%" height="134.6%" filterUnits="objectBoundingBox" id="filter-32">
            <feOffset dx="0" dy="0" in="SourceAlpha" result="shadowOffsetOuter1"></feOffset>
            <feGaussianBlur stdDeviation="3" in="shadowOffsetOuter1" result="shadowBlurOuter1"></feGaussianBlur>
            <feComposite in="shadowBlurOuter1" in2="SourceAlpha" operator="out" result="shadowBlurOuter1"></feComposite>
            <feColorMatrix values="0 0 0 0 0.278431373   0 0 0 0 0.309803922   0 0 0 0 0.380392157  0 0 0 0.1 0" type="matrix" in="shadowBlurOuter1"></feColorMatrix>
        </filter>
        <path d="M16,60.620438 L265,60.620438 C266.656854,60.620438 268,61.9635837 268,63.620438 L268,83.5766423 C268,85.2334966 266.656854,86.5766423 265,86.5766423 L16,86.5766423 C13.790861,86.5766423 12,84.7857813 12,82.5766423 L12,64.620438 C12,62.411299 13.790861,60.620438 16,60.620438 Z" id="path-33"></path>
        <filter x="-2.7%" y="-19.3%" width="105.5%" height="153.9%" filterUnits="objectBoundingBox" id="filter-34">
            <feOffset dx="0" dy="2" in="SourceAlpha" result="shadowOffsetOuter1"></feOffset>
            <feGaussianBlur stdDeviation="2" in="shadowOffsetOuter1" result="shadowBlurOuter1"></feGaussianBlur>
            <feComposite in="shadowBlurOuter1" in2="SourceAlpha" operator="out" result="shadowBlurOuter1"></feComposite>
            <feColorMatrix values="0 0 0 0 0.278431373   0 0 0 0 0.309803922   0 0 0 0 0.380392157  0 0 0 0.05 0" type="matrix" in="shadowBlurOuter1"></feColorMatrix>
        </filter>
        <rect id="path-35" x="22" y="467" width="70" height="28" rx="3"></rect>
        <filter x="-10.0%" y="-17.9%" width="120.0%" height="150.0%" filterUnits="objectBoundingBox" id="filter-36">
            <feOffset dx="0" dy="2" in="SourceAlpha" result="shadowOffsetOuter1"></feOffset>
            <feGaussianBlur stdDeviation="2" in="shadowOffsetOuter1" result="shadowBlurOuter1"></feGaussianBlur>
            <feComposite in="shadowBlurOuter1" in2="SourceAlpha" operator="out" result="shadowBlurOuter1"></feComposite>
            <feColorMatrix values="0 0 0 0 0.854901961   0 0 0 0 0.862745098   0 0 0 0 0.874509804  0 0 0 0.5 0" type="matrix" in="shadowBlurOuter1"></feColorMatrix>
        </filter>
        <rect id="path-37" x="22" y="635" width="70" height="28" rx="3"></rect>
        <filter x="-10.0%" y="-17.9%" width="120.0%" height="150.0%" filterUnits="objectBoundingBox" id="filter-38">
            <feOffset dx="0" dy="2" in="SourceAlpha" result="shadowOffsetOuter1"></feOffset>
            <feGaussianBlur stdDeviation="2" in="shadowOffsetOuter1" result="shadowBlurOuter1"></feGaussianBlur>
            <feComposite in="shadowBlurOuter1" in2="SourceAlpha" operator="out" result="shadowBlurOuter1"></feComposite>
            <feColorMatrix values="0 0 0 0 0.854901961   0 0 0 0 0.862745098   0 0 0 0 0.874509804  0 0 0 0.5 0" type="matrix" in="shadowBlurOuter1"></feColorMatrix>
        </filter>
        <rect id="path-39" x="22" y="383" width="236" height="64" rx="4"></rect>
        <filter x="-3.8%" y="-14.1%" width="107.6%" height="128.1%" filterUnits="objectBoundingBox" id="filter-40">
            <feOffset dx="0" dy="0" in="SourceAlpha" result="shadowOffsetOuter1"></feOffset>
            <feGaussianBlur stdDeviation="3" in="shadowOffsetOuter1" result="shadowBlurOuter1"></feGaussianBlur>
            <feComposite in="shadowBlurOuter1" in2="SourceAlpha" operator="out" result="shadowBlurOuter1"></feComposite>
            <feColorMatrix values="0 0 0 0 0.278431373   0 0 0 0 0.309803922   0 0 0 0 0.380392157  0 0 0 0.1 0" type="matrix" in="shadowBlurOuter1"></feColorMatrix>
        </filter>
        <path d="M191,407 L214,407 C215.656854,407 217,408.343146 217,410 L217,432 C217,433.656854 215.656854,435 214,435 L191,435 L191,435 L191,407 Z" id="path-41"></path>
        <filter x="-26.9%" y="-17.9%" width="153.8%" height="150.0%" filterUnits="objectBoundingBox" id="filter-42">
            <feOffset dx="0" dy="2" in="SourceAlpha" result="shadowOffsetOuter1"></feOffset>
            <feGaussianBlur stdDeviation="2" in="shadowOffsetOuter1" result="shadowBlurOuter1"></feGaussianBlur>
            <feComposite in="shadowBlurOuter1" in2="SourceAlpha" operator="out" result="shadowBlurOuter1"></feComposite>
            <feColorMatrix values="0 0 0 0 0.278431373   0 0 0 0 0.309803922   0 0 0 0 0.380392157  0 0 0 0.05 0" type="matrix" in="shadowBlurOuter1"></feColorMatrix>
        </filter>
        <rect id="path-43" x="22" y="549" width="236" height="66" rx="4"></rect>
        <filter x="-3.8%" y="-13.6%" width="107.6%" height="127.3%" filterUnits="objectBoundingBox" id="filter-44">
            <feOffset dx="0" dy="0" in="SourceAlpha" result="shadowOffsetOuter1"></feOffset>
            <feGaussianBlur stdDeviation="3" in="shadowOffsetOuter1" result="shadowBlurOuter1"></feGaussianBlur>
            <feComposite in="shadowBlurOuter1" in2="SourceAlpha" operator="out" result="shadowBlurOuter1"></feComposite>
            <feColorMatrix values="0 0 0 0 0.278431373   0 0 0 0 0.309803922   0 0 0 0 0.380392157  0 0 0 0.1 0" type="matrix" in="shadowBlurOuter1"></feColorMatrix>
        </filter>
        <filter x="-23.1%" y="-18.8%" width="146.2%" height="137.5%" filterUnits="objectBoundingBox" id="filter-45">
            <feOffset dx="0" dy="2" in="SourceAlpha" result="shadowOffsetOuter1"></feOffset>
            <feGaussianBlur stdDeviation="2" in="shadowOffsetOuter1" result="shadowBlurOuter1"></feGaussianBlur>
            <feColorMatrix values="0 0 0 0 0.305882353   0 0 0 0 0.501960784   0 0 0 0 0.956862745  0 0 0 0.2 0" type="matrix" in="shadowBlurOuter1" result="shadowMatrixOuter1"></feColorMatrix>
            <feMerge>
                <feMergeNode in="shadowMatrixOuter1"></feMergeNode>
                <feMergeNode in="SourceGraphic"></feMergeNode>
            </feMerge>
        </filter>
        <rect id="path-46" x="0" y="0" width="1090" height="60"></rect>
        <filter x="-1.4%" y="-25.8%" width="102.8%" height="151.7%" filterUnits="objectBoundingBox" id="filter-47">
            <feMorphology radius="0.5" operator="dilate" in="SourceAlpha" result="shadowSpreadOuter1"></feMorphology>
            <feOffset dx="0" dy="0" in="shadowSpreadOuter1" result="shadowOffsetOuter1"></feOffset>
            <feGaussianBlur stdDeviation="5" in="shadowOffsetOuter1" result="shadowBlurOuter1"></feGaussianBlur>
            <feComposite in="shadowBlurOuter1" in2="SourceAlpha" operator="out" result="shadowBlurOuter1"></feComposite>
            <feColorMatrix values="0 0 0 0 0.278431373   0 0 0 0 0.309803922   0 0 0 0 0.380392157  0 0 0 0.2 0" type="matrix" in="shadowBlurOuter1"></feColorMatrix>
        </filter>
        <path d="M4,0 L65,0 C67.209139,-4.05812251e-16 69,1.790861 69,4 L69,24 C69,26.209139 67.209139,28 65,28 L4,28 C1.790861,28 2.705415e-16,26.209139 0,24 L0,4 C-2.705415e-16,1.790861 1.790861,4.05812251e-16 4,0 Z" id="path-48"></path>
        <filter x="-10.1%" y="-17.9%" width="120.3%" height="150.0%" filterUnits="objectBoundingBox" id="filter-49">
            <feOffset dx="0" dy="2" in="SourceAlpha" result="shadowOffsetOuter1"></feOffset>
            <feGaussianBlur stdDeviation="2" in="shadowOffsetOuter1" result="shadowBlurOuter1"></feGaussianBlur>
            <feColorMatrix values="0 0 0 0 0.305882353   0 0 0 0 0.501960784   0 0 0 0 0.956862745  0 0 0 0.3 0" type="matrix" in="shadowBlurOuter1" result="shadowMatrixOuter1"></feColorMatrix>
            <feOffset dx="0" dy="2" in="SourceAlpha" result="shadowOffsetOuter2"></feOffset>
            <feGaussianBlur stdDeviation="2" in="shadowOffsetOuter2" result="shadowBlurOuter2"></feGaussianBlur>
            <feColorMatrix values="0 0 0 0 0.780392157   0 0 0 0 0.792156863   0 0 0 0 0.811764706  0 0 0 1 0" type="matrix" in="shadowBlurOuter2" result="shadowMatrixOuter2"></feColorMatrix>
            <feMerge>
                <feMergeNode in="shadowMatrixOuter1"></feMergeNode>
                <feMergeNode in="shadowMatrixOuter2"></feMergeNode>
            </feMerge>
        </filter>
        <text id="text-50" font-family="Roboto-Medium, Roboto" font-size="12" font-weight="400" fill="#FFFFFF">
            <tspan x="34" y="18">Run</tspan>
        </text>
        <filter x="-2.3%" y="-3.6%" width="109.1%" height="114.3%" filterUnits="objectBoundingBox" id="filter-51">
            <feOffset dx="1" dy="1" in="SourceAlpha" result="shadowOffsetOuter1"></feOffset>
            <feColorMatrix values="0 0 0 0 0.305882353   0 0 0 0 0.501960784   0 0 0 0 0.956862745  0 0 0 0.426054414 0" type="matrix" in="shadowOffsetOuter1"></feColorMatrix>
        </filter>
        <filter x="-37.5%" y="-37.5%" width="175.0%" height="175.0%" filterUnits="objectBoundingBox" id="filter-52">
            <feOffset dx="0" dy="2" in="SourceAlpha" result="shadowOffsetOuter1"></feOffset>
            <feMorphology radius="1" operator="erode" in="SourceAlpha" result="shadowInner"></feMorphology>
            <feOffset dx="0" dy="2" in="shadowInner" result="shadowInner"></feOffset>
            <feComposite in="shadowOffsetOuter1" in2="shadowInner" operator="out" result="shadowOffsetOuter1"></feComposite>
            <feGaussianBlur stdDeviation="2" in="shadowOffsetOuter1" result="shadowBlurOuter1"></feGaussianBlur>
            <feColorMatrix values="0 0 0 0 0.278431373   0 0 0 0 0.309803922   0 0 0 0 0.380392157  0 0 0 0.2 0" type="matrix" in="shadowBlurOuter1" result="shadowMatrixOuter1"></feColorMatrix>
            <feMerge>
                <feMergeNode in="shadowMatrixOuter1"></feMergeNode>
                <feMergeNode in="SourceGraphic"></feMergeNode>
            </feMerge>
        </filter>
    </defs>
    <g id="ASimpleDashboard" stroke="none" stroke-width="1" fill="none" fill-rule="evenodd">
        <rect fill="#FFFFFF" x="0" y="0" width="1078" height="767"></rect>
        <g id="canvas" transform="translate(8.000000, 70.000000)">
            <g id="bg" transform="translate(4.000000, 0.000000)">
                <g id="KPI" transform="translate(524.000000, 0.000000)">
                    <g id="bg">
                        <use fill="black" fill-opacity="1" filter="url(#filter-2)" xlink:href="#path-1"></use>
                        <rect stroke="#C7CACF" stroke-width="1" fill="#FFFFFF" fill-rule="evenodd" x="-0.5" y="-0.5" width="251" height="154" rx="4"></rect>
                    </g>
                    <text id="$34,021" font-family="Roboto-Bold, Roboto" font-size="48" font-weight="bold" fill="#474F61">
                        <tspan x="37.0234375" y="101">$34,021</tspan>
                    </text>
                    <text id="Q1-Revenue" font-family="Roboto-Medium, Roboto" font-size="14" font-weight="400" fill="#474F61">
                        <tspan x="87.0629883" y="30">Q1 Revenue</tspan>
                    </text>
                </g>
                <g id="KPI-2">
                    <g id="bg-copy-2">
                        <use fill="black" fill-opacity="1" filter="url(#filter-4)" xlink:href="#path-3"></use>
                        <rect stroke="#C7CACF" stroke-width="1" fill="#FFFFFF" fill-rule="evenodd" x="-0.5" y="-0.5" width="251" height="154" rx="4"></rect>
                    </g>
                    <text id="Revenue-Growth" font-family="Roboto-Medium, Roboto" font-size="14" font-weight="400" fill="#474F61">
                        <tspan x="72.7475586" y="28">Revenue Growth</tspan>
                    </text>
                    <text id="+15%" font-family="Roboto-Bold, Roboto" font-size="48" font-weight="bold" fill="#4BDEA0">
                        <tspan x="69.640625" y="106">+15%</tspan>
                    </text>
                </g>
                <g id="KPI-1" transform="translate(262.000000, 0.000000)">
                    <g id="bg-copy">
                        <use fill="black" fill-opacity="1" filter="url(#filter-6)" xlink:href="#path-5"></use>
                        <rect stroke="#C7CACF" stroke-width="1" fill="#FFFFFF" fill-rule="evenodd" x="-0.5" y="-0.5" width="251" height="154" rx="4"></rect>
                    </g>
                    <text id="Q1-Orders" font-family="Roboto-Medium, Roboto" font-size="14" font-weight="400" fill="#474F61">
                        <tspan x="92.3701172" y="30">Q1 Orders</tspan>
                    </text>
                    <text id="231" font-family="Roboto-Bold, Roboto" font-size="48" font-weight="bold" fill="#474F61">
                        <tspan x="86.6914062" y="106">231</tspan>
                    </text>
                </g>
                <g id="3-Dot-Menu" transform="translate(271.000000, 169.000000)">
                    <g id="3Dot" transform="translate(112.000000, 2.000000)">
                        <g id="Rectangle-7">
                            <use fill="black" fill-opacity="1" filter="url(#filter-8)" xlink:href="#path-7"></use>
                            <rect stroke="#D1D3D8" stroke-width="1" stroke-linejoin="square" fill="#FFFFFF" fill-rule="evenodd" x="0.5" y="0.5" width="35" height="25" rx="3"></rect>
                        </g>
                        <g id="Group" transform="translate(8.000000, 3.000000)" fill="#474F61">
                            <g id="Icon/Navigation/More/MoreOptions_Black" transform="translate(10.000000, 10.000000) rotate(90.000000) translate(-10.000000, -10.000000) ">
                                <path d="M10,4 C8.8954305,4 8,3.1045695 8,2 C8,0.8954305 8.8954305,0 10,0 C11.1045695,0 12,0.8954305 12,2 C12,3.1045695 11.1045695,4 10,4 Z" id="Path"></path>
                                <path d="M10,12 C8.8954305,12 8,11.1045695 8,10 C8,8.8954305 8.8954305,8 10,8 C11.1045695,8 12,8.8954305 12,10 C12,11.1045695 11.1045695,12 10,12 Z" id="Path"></path>
                                <path d="M10,20 C8.8954305,20 8,19.1045695 8,18 C8,16.8954305 8.8954305,16 10,16 C11.1045695,16 12,16.8954305 12,18 C12,19.1045695 11.1045695,20 10,20 Z" id="Path"></path>
                            </g>
                        </g>
                    </g>
                    <g id="Filters-Copy" transform="translate(0.000000, 2.000000)">
                        <g id="Rectangle-7">
                            <use fill="black" fill-opacity="1" filter="url(#filter-10)" xlink:href="#path-9"></use>
                            <rect stroke="#D1D3D8" stroke-width="1" stroke-linejoin="square" fill="#FFFFFF" fill-rule="evenodd" x="0.5" y="0.5" width="35" height="25" rx="3"></rect>
                        </g>
                        <text id="2" font-family="Roboto-Regular, Roboto" font-size="14" font-weight="normal" fill="#474F61">
                            <tspan x="23.0693359" y="18">2</tspan>
                        </text>
                        <g id="Group" transform="translate(5.000000, 5.000000)" fill="#474F61" stroke="#474F61">
                            <rect id="Rectangle" x="7.5" y="2.5" width="1" height="12" rx="0.5"></rect>
                            <path d="M8,2.81441102 L13.3500367,9.69302969 L3.04463936,10.5 L8,2.81441102 Z" id="Triangle" transform="translate(8.000000, 6.500000) scale(1, -1) translate(-8.000000, -6.500000) "></path>
                        </g>
                    </g>
                    <g id="Refresh" transform="translate(44.000000, 2.000000)">
                        <g id="Rectangle-7-Copy">
                            <use fill="black" fill-opacity="1" filter="url(#filter-12)" xlink:href="#path-11"></use>
                            <rect stroke="#D1D3D8" stroke-width="1" stroke-linejoin="square" fill="#FFFFFF" fill-rule="evenodd" x="0.5" y="0.5" width="25" height="25" rx="3"></rect>
                        </g>
                        <g id="Group-5" transform="translate(3.000000, 3.000000)">
                            <g id="Icon/Accent/ContextMenu/Refresh" transform="translate(5.454545, 0.000000)" fill="#474F61">
                                <path d="M4.54545455,2.72727273 C5.04753159,2.72727273 5.45454545,3.13428659 5.45454545,3.63636364 L5.45454545,16.7727273 C5.45454545,17.0488696 5.23068783,17.2727273 4.95454545,17.2727273 L4.13636364,17.2727273 C3.86022126,17.2727273 3.63636364,17.0488696 3.63636364,16.7727273 L3.63636364,3.63636364 C3.63636364,3.13428659 4.0433775,2.72727273 4.54545455,2.72727273 Z" id="Combined-Shape"></path>
                                <g id="Group" transform="translate(4.545455, 4.545455) scale(1, -1) rotate(-45.000000) translate(-4.545455, -4.545455) translate(1.818182, 1.818182)">
                                    <rect id="Rectangle-Copy" x="0" y="0" width="1.81818182" height="5.45454545" rx="0.909090909"></rect>
                                    <rect id="Rectangle-Copy-2" x="1.80865424e-13" y="3.63636364" width="5.45454545" height="1.81818182" rx="0.909090909"></rect>
                                </g>
                                <g id="Group" transform="translate(4.545455, 15.454545) rotate(-45.000000) translate(-4.545455, -15.454545) translate(1.818182, 12.727273)">
                                    <rect id="Rectangle-Copy" x="0" y="0" width="1.81818182" height="5.45454545" rx="0.909090909"></rect>
                                    <rect id="Rectangle-Copy-2" x="1.80865424e-13" y="3.63636364" width="5.45454545" height="1.81818182" rx="0.909090909"></rect>
                                </g>
                            </g>
                            <g id="Icon/Accent/ContextMenu/Refresh" transform="translate(10.000000, 10.000000) rotate(90.000000) translate(-10.000000, -10.000000) translate(5.454545, 0.000000)"></g>
                            <path d="M10,2.72727273 C10.502077,2.72727273 10.9090909,3.13428659 10.9090909,3.63636364 L10.9090909,16.7727273 C10.9090909,17.0488696 10.6852333,17.2727273 10.4090909,17.2727273 L9.59090909,17.2727273 C9.31476672,17.2727273 9.09090909,17.0488696 9.09090909,16.7727273 L9.09090909,3.63636364 C9.09090909,3.13428659 9.49792295,2.72727273 10,2.72727273 Z" id="Combined-Shape" fill="#474F61" transform="translate(10.000000, 10.000000) rotate(90.000000) translate(-10.000000, -10.000000) "></path>
                            <g id="Group" transform="translate(4.545455, 10.000000) rotate(45.000000) translate(-4.545455, -10.000000) translate(1.818182, 7.272727)" fill="#474F61">
                                <rect id="Rectangle-Copy" x="0" y="0" width="1.81818182" height="5.45454545" rx="0.909090909"></rect>
                                <rect id="Rectangle-Copy-2" x="1.80865424e-13" y="3.63636364" width="5.45454545" height="1.81818182" rx="0.909090909"></rect>
                            </g>
                            <g id="Group" transform="translate(15.454545, 10.000000) scale(1, -1) rotate(-135.000000) translate(-15.454545, -10.000000) translate(12.727273, 7.272727)" fill="#474F61">
                                <rect id="Rectangle-Copy" x="0" y="0" width="1.81818182" height="5.45454545" rx="0.909090909"></rect>
                                <rect id="Rectangle-Copy-2" x="1.80865424e-13" y="3.63636364" width="5.45454545" height="1.81818182" rx="0.909090909"></rect>
                            </g>
                        </g>
                    </g>
                    <g id="Refresh" transform="translate(76.000000, 0.000000)">
                        <g id="Rectangle-7-Copy">
                            <use fill="black" fill-opacity="1" filter="url(#filter-14)" xlink:href="#path-13"></use>
                            <rect stroke="#D1D3D8" stroke-width="1" stroke-linejoin="square" fill="#FFFFFF" fill-rule="evenodd" x="2.5" y="2.5" width="25" height="25" rx="3"></rect>
                        </g>
                        <g id="Vector" transform="translate(7.000000, 7.000000)" fill="#474F61">
                            <path d="M7.53333333,1.53333333 C9.57509192,1.53333333 11.3980981,2.46514531 12.5961582,3.92464814 L13.582364,2.94373653 C14.3653027,2.16479235 15,2.43713048 15,3.53658559 L15,7.03195327 C15,7.58500021 14.5509375,8.03333333 14.0077273,8.03333333 L10.4623821,8.03333333 C9.36017891,8.03333333 9.10500575,7.39825108 9.8843027,6.62293014 L11.2669182,5.24749953 C10.4155201,4.119867 9.0600427,3.39047619 7.53333333,3.39047619 C4.9560045,3.39047619 2.86666667,5.46915414 2.86666667,8.03333333 C2.86666667,10.5975125 4.9560045,12.6761905 7.53333333,12.6761905 C9.0600427,12.6761905 10.4155201,11.9467997 11.2669182,10.8191671 L13.4379879,10.8189562 C12.3894404,13.015028 10.1396057,14.5333333 7.53333333,14.5333333 C3.92507297,14.5333333 1,11.6231842 1,8.03333333 C1,4.44348246 3.92507297,1.53333333 7.53333333,1.53333333 Z"></path>
                        </g>
                        <g id="Oval">
                            <use fill="black" fill-opacity="1" filter="url(#filter-16)" xlink:href="#path-15"></use>
                            <circle stroke="#FFFFFF" stroke-width="1" fill="#4E80F4" fill-rule="evenodd" cx="4" cy="4" r="4.5"></circle>
                        </g>
                    </g>
                </g>
            </g>
            <g id="Existing-Report-Tile" transform="translate(0.000000, 161.000000)">
                <g id="Rectangle">
                    <use fill="black" fill-opacity="1" filter="url(#filter-18)" xlink:href="#path-17"></use>
                    <rect stroke="#4E80F4" stroke-width="2" fill="#FFFFFF" fill-rule="evenodd" x="3" y="3" width="776" height="254" rx="4"></rect>
                </g>
                <g id="grabbers" fill="#FFFFFF" stroke="#4E80F4" stroke-width="2">
                    <rect id="Rectangle" x="775" y="253" width="6" height="6" rx="1"></rect>
                    <rect id="Rectangle" x="775" y="1" width="6" height="6" rx="1"></rect>
                    <rect id="Rectangle" x="388" y="1" width="6" height="6" rx="1"></rect>
                    <rect id="Rectangle" x="1" y="1" width="6" height="6" rx="1"></rect>
                    <rect id="Rectangle" x="1" y="127" width="6" height="6" rx="1"></rect>
                    <rect id="Rectangle" x="1" y="253" width="6" height="6" rx="1"></rect>
                    <rect id="Rectangle" x="388" y="253" width="6" height="6" rx="1"></rect>
                    <rect id="Rectangle" x="775" y="127" width="6" height="6" rx="1"></rect>
                </g>
                <g id="chart" transform="translate(21.000000, 64.000000)">
                    <polygon id="Combined-Shape" fill-opacity="0.3" fill="#474F61" points="23 163 737 163 737 164 23 164"></polygon>
                    <line x1="29.1583333" y1="128" x2="721.841667" y2="128" id="Line" stroke="#C7CACF" stroke-linecap="square" stroke-dasharray="4"></line>
                    <line x1="29.1583333" y1="88" x2="721.841667" y2="88" id="Line" stroke="#C7CACF" stroke-linecap="square" stroke-dasharray="4"></line>
                    <line x1="29.1583333" y1="48" x2="721.841667" y2="48" id="Line" stroke="#C7CACF" stroke-linecap="square" stroke-dasharray="4"></line>
                    <line x1="29.1583333" y1="7" x2="721.841667" y2="7" id="Line" stroke="#C7CACF" stroke-linecap="square" stroke-dasharray="4"></line>
                    <text id="Arnold" font-family="Roboto-Regular, Roboto" font-size="11" font-weight="normal" fill="#474F61" fill-opacity="0.6">
                        <tspan x="75.9431152" y="178">Arnold</tspan>
                    </text>
                    <text id="Hilton" font-family="Roboto-Regular, Roboto" font-size="11" font-weight="normal" fill="#474F61" fill-opacity="0.6">
                        <tspan x="150.44165" y="178">Hilton</tspan>
                    </text>
                    <text id="Cook" font-family="Roboto-Regular, Roboto" font-size="11" font-weight="normal" fill="#474F61" fill-opacity="0.6">
                        <tspan x="224.359131" y="178">Cook</tspan>
                    </text>
                    <text id="Mulligan" font-family="Roboto-Regular, Roboto" font-size="11" font-weight="normal" fill="#474F61" fill-opacity="0.6">
                        <tspan x="291.050049" y="178">Mulligan</tspan>
                    </text>
                    <text id="Vallas" font-family="Roboto-Regular, Roboto" font-size="11" font-weight="normal" fill="#474F61" fill-opacity="0.6">
                        <tspan x="367.011963" y="178">Vallas</tspan>
                    </text>
                    <text id="Brown" font-family="Roboto-Regular, Roboto" font-size="11" font-weight="normal" fill="#474F61" fill-opacity="0.6">
                        <tspan x="656.4104" y="178">Brown</tspan>
                    </text>
                    <text id="Erdman" font-family="Roboto-Regular, Roboto" font-size="11" font-weight="normal" fill="#474F61" fill-opacity="0.6">
                        <tspan x="503.064209" y="178">Erdman</tspan>
                    </text>
                    <text id="Miefski" font-family="Roboto-Regular, Roboto" font-size="11" font-weight="normal" fill="#474F61" fill-opacity="0.6">
                        <tspan x="574.082031" y="178">Miefski</tspan>
                    </text>
                    <text id="Koperski" font-family="Roboto-Regular, Roboto" font-size="11" font-weight="normal" fill="#474F61" fill-opacity="0.6">
                        <tspan x="430.596191" y="178">Koperski</tspan>
                    </text>
                    <text id="10" font-family="Roboto-Regular, Roboto" font-size="11" font-weight="normal" fill="#474F61" fill-opacity="0.6">
                        <tspan x="6.64648438" y="132">10</tspan>
                    </text>
                    <text id="0" font-family="Roboto-Regular, Roboto" font-size="11" font-weight="normal" fill="#474F61" fill-opacity="0.6">
                        <tspan x="14" y="167">0</tspan>
                    </text>
                    <text id="20" font-family="Roboto-Regular, Roboto" font-size="11" font-weight="normal" fill="#474F61" fill-opacity="0.6">
                        <tspan x="6.64648438" y="91">20</tspan>
                    </text>
                    <text id="30" font-family="Roboto-Regular, Roboto" font-size="11" font-weight="normal" fill="#474F61" fill-opacity="0.6">
                        <tspan x="6.64648438" y="50">30</tspan>
                    </text>
                    <text id="40" font-family="Roboto-Regular, Roboto" font-size="11" font-weight="normal" fill="#474F61" fill-opacity="0.6">
                        <tspan x="6.64648438" y="10">40</tspan>
                    </text>
                </g>
                <text id="Orders-by-Employee" font-family="Roboto-Medium, Roboto" font-size="14" font-weight="400" fill="#474F61">
                    <tspan x="327.60498" y="32">Orders by Employee</tspan>
                </text>
                <g id="3-Dot-Menu" transform="translate(14.000000, 14.000000)">
                    <g id="3Dot" transform="translate(716.000000, 0.000000)">
                        <g id="Rectangle-7">
                            <use fill="black" fill-opacity="1" filter="url(#filter-20)" xlink:href="#path-19"></use>
                            <rect stroke="#C7CACF" stroke-width="1" stroke-linejoin="square" fill="#FFFFFF" fill-rule="evenodd" x="0.5" y="0.5" width="35" height="25" rx="3"></rect>
                        </g>
                        <g id="Group" transform="translate(8.000000, 3.000000)" fill="#474F61">
                            <g id="Icon/Navigation/More/MoreOptions_Black" transform="translate(10.000000, 10.000000) rotate(90.000000) translate(-10.000000, -10.000000) ">
                                <path d="M10,4 C8.8954305,4 8,3.1045695 8,2 C8,0.8954305 8.8954305,0 10,0 C11.1045695,0 12,0.8954305 12,2 C12,3.1045695 11.1045695,4 10,4 Z" id="Path"></path>
                                <path d="M10,12 C8.8954305,12 8,11.1045695 8,10 C8,8.8954305 8.8954305,8 10,8 C11.1045695,8 12,8.8954305 12,10 C12,11.1045695 11.1045695,12 10,12 Z" id="Path"></path>
                                <path d="M10,20 C8.8954305,20 8,19.1045695 8,18 C8,16.8954305 8.8954305,16 10,16 C11.1045695,16 12,16.8954305 12,18 C12,19.1045695 11.1045695,20 10,20 Z" id="Path"></path>
                            </g>
                        </g>
                    </g>
                    <g id="Move">
                        <g id="Rectangle-7-Copy">
                            <use fill="black" fill-opacity="1" filter="url(#filter-22)" xlink:href="#path-21"></use>
                            <rect stroke="#C7CACF" stroke-width="1" stroke-linejoin="square" fill="#FFFFFF" fill-rule="evenodd" x="0.5" y="0.5" width="25" height="25" rx="3"></rect>
                        </g>
                        <g id="Group-5" transform="translate(3.000000, 3.000000)">
                            <g id="Icon/Accent/ContextMenu/Refresh" transform="translate(5.454545, 0.000000)" fill="#474F61">
                                <path d="M4.54545455,2.72727273 C5.04753159,2.72727273 5.45454545,3.13428659 5.45454545,3.63636364 L5.45454545,16.7727273 C5.45454545,17.0488696 5.23068783,17.2727273 4.95454545,17.2727273 L4.13636364,17.2727273 C3.86022126,17.2727273 3.63636364,17.0488696 3.63636364,16.7727273 L3.63636364,3.63636364 C3.63636364,3.13428659 4.0433775,2.72727273 4.54545455,2.72727273 Z" id="Combined-Shape"></path>
                                <g id="Group" transform="translate(4.545455, 4.545455) scale(1, -1) rotate(-45.000000) translate(-4.545455, -4.545455) translate(1.818182, 1.818182)">
                                    <rect id="Rectangle-Copy" x="0" y="0" width="1.81818182" height="5.45454545" rx="0.909090909"></rect>
                                    <rect id="Rectangle-Copy-2" x="1.80865424e-13" y="3.63636364" width="5.45454545" height="1.81818182" rx="0.909090909"></rect>
                                </g>
                                <g id="Group" transform="translate(4.545455, 15.454545) rotate(-45.000000) translate(-4.545455, -15.454545) translate(1.818182, 12.727273)">
                                    <rect id="Rectangle-Copy" x="0" y="0" width="1.81818182" height="5.45454545" rx="0.909090909"></rect>
                                    <rect id="Rectangle-Copy-2" x="1.80865424e-13" y="3.63636364" width="5.45454545" height="1.81818182" rx="0.909090909"></rect>
                                </g>
                            </g>
                            <g id="Icon/Accent/ContextMenu/Refresh" transform="translate(10.000000, 10.000000) rotate(90.000000) translate(-10.000000, -10.000000) translate(5.454545, 0.000000)"></g>
                            <path d="M10,2.72727273 C10.502077,2.72727273 10.9090909,3.13428659 10.9090909,3.63636364 L10.9090909,16.7727273 C10.9090909,17.0488696 10.6852333,17.2727273 10.4090909,17.2727273 L9.59090909,17.2727273 C9.31476672,17.2727273 9.09090909,17.0488696 9.09090909,16.7727273 L9.09090909,3.63636364 C9.09090909,3.13428659 9.49792295,2.72727273 10,2.72727273 Z" id="Combined-Shape" fill="#474F61" transform="translate(10.000000, 10.000000) rotate(90.000000) translate(-10.000000, -10.000000) "></path>
                            <g id="Group" transform="translate(4.545455, 10.000000) rotate(45.000000) translate(-4.545455, -10.000000) translate(1.818182, 7.272727)" fill="#474F61">
                                <rect id="Rectangle-Copy" x="0" y="0" width="1.81818182" height="5.45454545" rx="0.909090909"></rect>
                                <rect id="Rectangle-Copy-2" x="1.80865424e-13" y="3.63636364" width="5.45454545" height="1.81818182" rx="0.909090909"></rect>
                            </g>
                            <g id="Group" transform="translate(15.454545, 10.000000) scale(1, -1) rotate(-135.000000) translate(-15.454545, -10.000000) translate(12.727273, 7.272727)" fill="#474F61">
                                <rect id="Rectangle-Copy" x="0" y="0" width="1.81818182" height="5.45454545" rx="0.909090909"></rect>
                                <rect id="Rectangle-Copy-2" x="1.80865424e-13" y="3.63636364" width="5.45454545" height="1.81818182" rx="0.909090909"></rect>
                            </g>
                        </g>
                    </g>
                    <g id="Refresh" transform="translate(680.000000, 0.000000)">
                        <g id="Rectangle-7-Copy">
                            <use fill="black" fill-opacity="1" filter="url(#filter-24)" xlink:href="#path-23"></use>
                            <rect stroke="#C7CACF" stroke-width="1" stroke-linejoin="square" fill="#FFFFFF" fill-rule="evenodd" x="0.5" y="0.5" width="25" height="25" rx="3"></rect>
                        </g>
                        <g id="Vector" transform="translate(5.000000, 5.000000)" fill="#474F61">
                            <path d="M7.53333333,1.53333333 C9.57509192,1.53333333 11.3980981,2.46514531 12.5961582,3.92464814 L13.582364,2.94373653 C14.3653027,2.16479235 15,2.43713048 15,3.53658559 L15,7.03195327 C15,7.58500021 14.5509375,8.03333333 14.0077273,8.03333333 L10.4623821,8.03333333 C9.36017891,8.03333333 9.10500575,7.39825108 9.8843027,6.62293014 L11.2669182,5.24749953 C10.4155201,4.119867 9.0600427,3.39047619 7.53333333,3.39047619 C4.9560045,3.39047619 2.86666667,5.46915414 2.86666667,8.03333333 C2.86666667,10.5975125 4.9560045,12.6761905 7.53333333,12.6761905 C9.0600427,12.6761905 10.4155201,11.9467997 11.2669182,10.8191671 L13.4379879,10.8189562 C12.3894404,13.015028 10.1396057,14.5333333 7.53333333,14.5333333 C3.92507297,14.5333333 1,11.6231842 1,8.03333333 C1,4.44348246 3.92507297,1.53333333 7.53333333,1.53333333 Z"></path>
                        </g>
                    </g>
                </g>
            </g>
            <g id="Existing-Report-Tile-Copy" transform="translate(4.000000, 432.000000)">
                <g id="Rectangle">
                    <use fill="black" fill-opacity="1" filter="url(#filter-26)" xlink:href="#path-25"></use>
                    <rect stroke="#C7CACF" stroke-width="1" fill="#FFFFFF" fill-rule="evenodd" x="-0.5" y="-0.5" width="775" height="253" rx="4"></rect>
                </g>
                <g id="chart" transform="translate(17.000000, 49.000000)">
                    <polygon id="Combined-Shape" fill-opacity="0.3" fill="#474F61" points="23 174 737 174 737 175 23 175"></polygon>
                    <line x1="29.1583333" y1="139" x2="721.841667" y2="139" id="Line" stroke="#C7CACF" stroke-linecap="square" stroke-dasharray="4"></line>
                    <line x1="29.1583333" y1="99" x2="721.841667" y2="99" id="Line" stroke="#C7CACF" stroke-linecap="square" stroke-dasharray="4"></line>
                    <line x1="29.1583333" y1="59" x2="721.841667" y2="59" id="Line" stroke="#C7CACF" stroke-linecap="square" stroke-dasharray="4"></line>
                    <line x1="29.1583333" y1="18" x2="721.841667" y2="18" id="Line" stroke="#C7CACF" stroke-linecap="square" stroke-dasharray="4"></line>
                    <text id="Week-1" font-family="Roboto-Regular, Roboto" font-size="11" font-weight="normal" fill="#474F61" fill-opacity="0.6">
                        <tspan x="74.0551758" y="189">Week 1</tspan>
                    </text>
                    <text id="Week-2" font-family="Roboto-Regular, Roboto" font-size="11" font-weight="normal" fill="#474F61" fill-opacity="0.6">
                        <tspan x="147.055176" y="189">Week 2</tspan>
                    </text>
                    <text id="Week-3" font-family="Roboto-Regular, Roboto" font-size="11" font-weight="normal" fill="#474F61" fill-opacity="0.6">
                        <tspan x="219.055176" y="189">Week 3</tspan>
                    </text>
                    <text id="Week-4" font-family="Roboto-Regular, Roboto" font-size="11" font-weight="normal" fill="#474F61" fill-opacity="0.6">
                        <tspan x="294.055176" y="189">Week 4</tspan>
                    </text>
                    <text id="Week-5" font-family="Roboto-Regular, Roboto" font-size="11" font-weight="normal" fill="#474F61" fill-opacity="0.6">
                        <tspan x="364.055176" y="189">Week 5</tspan>
                    </text>
                    <text id="Week-9" font-family="Roboto-Regular, Roboto" font-size="11" font-weight="normal" fill="#474F61" fill-opacity="0.6">
                        <tspan x="654.055176" y="189">Week 9</tspan>
                    </text>
                    <text id="Week-7" font-family="Roboto-Regular, Roboto" font-size="11" font-weight="normal" fill="#474F61" fill-opacity="0.6">
                        <tspan x="504.055176" y="189">Week 7</tspan>
                    </text>
                    <text id="Week-8" font-family="Roboto-Regular, Roboto" font-size="11" font-weight="normal" fill="#474F61" fill-opacity="0.6">
                        <tspan x="574.055176" y="189">Week 8</tspan>
                    </text>
                    <text id="Week-6" font-family="Roboto-Regular, Roboto" font-size="11" font-weight="normal" fill="#474F61" fill-opacity="0.6">
                        <tspan x="434.055176" y="189">Week 6</tspan>
                    </text>
                    <text id="50" font-family="Roboto-Regular, Roboto" font-size="11" font-weight="normal" fill="#474F61" fill-opacity="0.6">
                        <tspan x="6.64648438" y="143">50</tspan>
                    </text>
                    <text id="0" font-family="Roboto-Regular, Roboto" font-size="11" font-weight="normal" fill="#474F61" fill-opacity="0.6">
                        <tspan x="14" y="178">0</tspan>
                    </text>
                    <text id="100" font-family="Roboto-Regular, Roboto" font-size="11" font-weight="normal" fill="#474F61" fill-opacity="0.6">
                        <tspan x="0.469726562" y="102">100</tspan>
                    </text>
                    <text id="150" font-family="Roboto-Regular, Roboto" font-size="11" font-weight="normal" fill="#474F61" fill-opacity="0.6">
                        <tspan x="0.469726562" y="61">150</tspan>
                    </text>
                    <text id="200" font-family="Roboto-Regular, Roboto" font-size="11" font-weight="normal" fill="#474F61" fill-opacity="0.6">
                        <tspan x="0.469726562" y="21">200</tspan>
                    </text>
                    <g id="vector">
                        <use fill="black" fill-opacity="1" filter="url(#filter-28)" xlink:href="#path-27"></use>
                        <use stroke="#4E80F4" stroke-width="2" xlink:href="#path-27"></use>
                    </g>
                </g>
                <text id="Orders-over-Time" font-family="Roboto-Medium, Roboto" font-size="14" font-weight="400" fill="#474F61">
                    <tspan x="332.255859" y="28">Orders over Time</tspan>
                </text>
            </g>
            <path d="M388,332 L418,332 C420.209139,332 422,333.790861 422,336 L422,389 L422,389 L384,389 L384,336 C384,333.790861 385.790861,332 388,332 Z" id="Rectangle" fill="#4E80F4"></path>
            <path d="M318,337 L348,337 C350.209139,337 352,338.790861 352,341 L352,389 L352,389 L314,389 L314,341 C314,338.790861 315.790861,337 318,337 Z" id="Rectangle" fill="#4E80F4"></path>
            <path d="M243,350 L273,350 C275.209139,350 277,351.790861 277,354 L277,389 L277,389 L239,389 L239,354 C239,351.790861 240.790861,350 243,350 Z" id="Rectangle" fill="#4E80F4"></path>
            <path d="M171,368 L201,368 C203.209139,368 205,369.790861 205,372 L205,389 L205,389 L167,389 L167,372 C167,369.790861 168.790861,368 171,368 Z" id="Rectangle" fill="#4E80F4"></path>
            <path d="M98,368 L128,368 C130.209139,368 132,369.790861 132,372 L132,389 L132,389 L94,389 L94,372 C94,369.790861 95.790861,368 98,368 Z" id="Rectangle" fill="#4E80F4"></path>
            <path d="M458,320 L488,320 C490.209139,320 492,321.790861 492,324 L492,389 L492,389 L454,389 L454,324 C454,321.790861 455.790861,320 458,320 Z" id="Rectangle" fill="#4E80F4"></path>
            <path d="M528,303 L558,303 C560.209139,303 562,304.790861 562,307 L562,389 L562,389 L524,389 L524,307 C524,304.790861 525.790861,303 528,303 Z" id="Rectangle" fill="#4E80F4"></path>
            <path d="M598,282 L628,282 C630.209139,282 632,283.790861 632,286 L632,389 L632,389 L594,389 L594,286 C594,283.790861 595.790861,282 598,282 Z" id="Rectangle" fill="#4E80F4"></path>
            <path d="M678,252 L708,252 C710.209139,252 712,253.790861 712,256 L712,389 L712,389 L674,389 L674,256 C674,253.790861 675.790861,252 678,252 Z" id="Rectangle" fill="#4E80F4"></path>
        </g>
        <g id="Right-Pane" transform="translate(798.000000, 57.000000)">
            <g id="padding-copy-5">
                <use fill="black" fill-opacity="1" filter="url(#filter-30)" xlink:href="#path-29"></use>
                <rect stroke="#C7CACF" stroke-width="1" stroke-linejoin="square" fill="#FFFFFF" fill-rule="evenodd" x="0.5" y="0.5" width="280" height="721"></rect>
            </g>
            <path d="M201.512939,264.146484 L202.79126,264.146484 C203.399987,264.146484 203.850991,263.994305 204.144287,263.689941 C204.437583,263.385578 204.584229,262.981611 204.584229,262.478027 C204.584229,262.256672 204.551026,262.050538 204.484619,261.859619 C204.418213,261.6687 204.317221,261.505453 204.181641,261.369873 C204.046061,261.234293 203.875896,261.127767 203.671143,261.050293 C203.466389,260.972819 203.225669,260.934082 202.948975,260.934082 C202.727619,260.934082 202.518718,260.965901 202.322266,261.029541 C202.125813,261.093181 201.954265,261.183105 201.807617,261.299316 C201.660969,261.415528 201.54476,261.558023 201.458984,261.726807 C201.373209,261.89559 201.330322,262.085123 201.330322,262.29541 L198.931396,262.29541 C198.931396,261.797361 199.035155,261.344973 199.242676,260.938232 C199.450196,260.531492 199.73242,260.18563 200.089355,259.900635 C200.446291,259.61564 200.865476,259.394288 201.346924,259.236572 C201.828372,259.078857 202.343015,259 202.890869,259 C203.499596,259 204.054359,259.073323 204.555176,259.219971 C205.055992,259.366619 205.486245,259.585204 205.845947,259.875732 C206.20565,260.166261 206.485106,260.525958 206.684326,260.954834 C206.883546,261.38371 206.983154,261.880368 206.983154,262.444824 C206.983154,262.704917 206.943034,262.962238 206.862793,263.216797 C206.782552,263.471355 206.663575,263.710692 206.505859,263.934814 C206.348144,264.158937 206.155844,264.366454 205.928955,264.557373 C205.702066,264.748292 205.441977,264.910156 205.148682,265.042969 C205.829349,265.28646 206.337075,265.65169 206.671875,266.138672 C207.006675,266.625653 207.174072,267.201169 207.174072,267.865234 C207.174072,268.42969 207.06478,268.933266 206.846191,269.375977 C206.627603,269.818687 206.327394,270.190835 205.945557,270.492432 C205.563719,270.794028 205.111331,271.023681 204.588379,271.181396 C204.065427,271.339112 203.499596,271.417969 202.890869,271.417969 C202.376218,271.417969 201.872642,271.348796 201.380127,271.210449 C200.887611,271.072102 200.449058,270.859051 200.064453,270.571289 C199.679848,270.283527 199.369956,269.922447 199.134766,269.488037 C198.899576,269.053627 198.781982,268.537601 198.781982,267.939941 L201.180908,267.939941 C201.180908,268.166831 201.225179,268.374348 201.313721,268.5625 C201.402263,268.750652 201.52539,268.912516 201.683105,269.048096 C201.840821,269.183676 202.027587,269.290201 202.243408,269.367676 C202.45923,269.44515 202.694416,269.483887 202.948975,269.483887 C203.231203,269.483887 203.485757,269.44515 203.712646,269.367676 C203.939536,269.290201 204.131835,269.178142 204.289551,269.031494 C204.447266,268.884846 204.567627,268.710532 204.650635,268.508545 C204.733643,268.306558 204.775146,268.081056 204.775146,267.832031 C204.775146,267.511066 204.729493,267.23576 204.638184,267.006104 C204.546875,266.776447 204.415447,266.589682 204.243896,266.445801 C204.072346,266.30192 203.863445,266.195394 203.617188,266.126221 C203.37093,266.057047 203.095623,266.022461 202.79126,266.022461 L201.512939,266.022461 L201.512939,264.146484 Z M215.33374,259.041504 L215.33374,261.01709 L215.192627,261.01709 C214.622637,261.01709 214.110761,261.090413 213.656982,261.237061 C213.203204,261.383708 212.811688,261.592609 212.482422,261.86377 C212.153156,262.13493 211.887534,262.464191 211.685547,262.851562 C211.48356,263.238934 211.349366,263.673337 211.282959,264.154785 C211.576255,263.855956 211.926267,263.616619 212.333008,263.436768 C212.739748,263.256916 213.203204,263.166992 213.723389,263.166992 C214.293379,263.166992 214.792804,263.276285 215.22168,263.494873 C215.650556,263.713461 216.008869,264.00952 216.296631,264.383057 C216.584393,264.756594 216.800211,265.190997 216.944092,265.686279 C217.087973,266.181562 217.159912,266.708656 217.159912,267.267578 C217.159912,267.85417 217.064454,268.400632 216.873535,268.906982 C216.682616,269.413333 216.410077,269.851886 216.055908,270.222656 C215.70174,270.593426 215.274254,270.885334 214.773438,271.098389 C214.272621,271.311443 213.712324,271.417969 213.092529,271.417969 C212.445065,271.417969 211.858482,271.300376 211.332764,271.065186 C210.807045,270.829996 210.360191,270.500735 209.992188,270.077393 C209.624184,269.654051 209.339194,269.147708 209.137207,268.55835 C208.93522,267.968991 208.834229,267.320153 208.834229,266.611816 L208.834229,265.682129 C208.834229,264.708166 208.972573,263.814457 209.249268,263.000977 C209.525962,262.187496 209.927162,261.48747 210.452881,260.900879 C210.9786,260.314287 211.623287,259.857749 212.386963,259.53125 C213.150639,259.204751 214.019445,259.041504 214.993408,259.041504 L215.33374,259.041504 Z M212.99292,265.092773 C212.777099,265.092773 212.577882,265.121826 212.395264,265.179932 C212.212646,265.238037 212.046632,265.318277 211.897217,265.420654 C211.747802,265.523031 211.616374,265.642008 211.50293,265.777588 C211.389485,265.913168 211.299561,266.055663 211.233154,266.205078 L211.233154,266.927246 C211.233154,267.353355 211.277425,267.726886 211.365967,268.047852 C211.454509,268.368817 211.577636,268.635823 211.735352,268.848877 C211.893067,269.061931 212.083983,269.221028 212.308105,269.326172 C212.532228,269.431316 212.777098,269.483887 213.042725,269.483887 C213.302817,269.483887 213.539387,269.428549 213.752441,269.317871 C213.965496,269.207193 214.146728,269.055014 214.296143,268.861328 C214.445557,268.667642 214.561767,268.436606 214.644775,268.168213 C214.727784,267.89982 214.769287,267.607912 214.769287,267.29248 C214.769287,266.971515 214.729167,266.676841 214.648926,266.408447 C214.568684,266.140054 214.451091,265.907634 214.296143,265.711182 C214.141194,265.514729 213.954428,265.362549 213.73584,265.254639 C213.517252,265.146728 213.269614,265.092773 212.99292,265.092773 Z" id="Vector" fill="#4E80F4"></path>
            <path d="M209,274.251953 L209,276.251953 L191,276.251953 L191,274.251953 L209,274.251953 Z M216,274.251953 L216,276.251953 L211,276.251953 L211,274.251953 L216,274.251953 Z M225,274.251953 L225,276.251953 L218,276.251953 L218,274.251953 L225,274.251953 Z" id="Vector" fill-opacity="0.5" fill="#474F61"></path>
            <text id="KPI" font-family="Roboto-Regular, Roboto" font-size="10" font-weight="normal" fill="#6C7281">
                <tspan x="183" y="237">KPI</tspan>
            </text>
            <circle id="Vector" fill="#4E80F4" cx="132.5" cy="273.5" r="5.5"></circle>
            <path d="M135.571068,256.066465 C135.571068,255.516722 136.026732,255.071068 136.566465,255.071068 L144.57567,255.071068 C145.125413,255.071068 145.571068,255.526732 145.571068,256.066465 L145.571068,264.07567 C145.571068,264.625413 145.115403,265.071068 144.57567,265.071068 L136.566465,265.071068 C136.016722,265.071068 135.571068,264.615403 135.571068,264.07567 L135.571068,256.066465 Z" id="Vector" fill="#C7CACF" transform="translate(140.571068, 260.071068) rotate(45.000000) translate(-140.571068, -260.071068) "></path>
            <path d="M147.052065,268.378756 C147.300002,267.890719 147.702186,267.891113 147.949922,268.378756 L152.896888,278.116332 C153.144825,278.604368 152.901843,279 152.349164,279 L142.652823,279 C142.102387,279 141.857363,278.603975 142.105099,278.116332 L147.052065,268.378756 Z" id="Vector" fill-opacity="0.5" fill="#4E80F4"></path>
            <text id="Scatter" font-family="Roboto-Regular, Roboto" font-size="10" font-weight="normal" fill="#6C7281">
                <tspan x="116" y="237">Scatter</tspan>
            </text>
            <polyline id="Vector" stroke="#4E80F4" stroke-width="2" points="57 277 65 263 79 274 87 255"></polyline>
            <path d="M57,274.5 C57.6903559,274.5 58.3153559,274.779822 58.767767,275.232233 C59.220178,275.684644 59.5,276.309644 59.5,277 C59.5,277.690356 59.220178,278.315356 58.767767,278.767767 C58.3153559,279.220178 57.6903559,279.5 57,279.5 C56.3096441,279.5 55.6846441,279.220178 55.232233,278.767767 C54.779822,278.315356 54.5,277.690356 54.5,277 C54.5,276.309644 54.779822,275.684644 55.232233,275.232233 C55.6846441,274.779822 56.3096441,274.5 57,274.5 Z M79,271.5 C79.6903559,271.5 80.3153559,271.779822 80.767767,272.232233 C81.220178,272.684644 81.5,273.309644 81.5,274 C81.5,274.690356 81.220178,275.315356 80.767767,275.767767 C80.3153559,276.220178 79.6903559,276.5 79,276.5 C78.3096441,276.5 77.6846441,276.220178 77.232233,275.767767 C76.779822,275.315356 76.5,274.690356 76.5,274 C76.5,273.309644 76.779822,272.684644 77.232233,272.232233 C77.6846441,271.779822 78.3096441,271.5 79,271.5 Z M65,260.5 C65.6903559,260.5 66.3153559,260.779822 66.767767,261.232233 C67.220178,261.684644 67.5,262.309644 67.5,263 C67.5,263.690356 67.220178,264.315356 66.767767,264.767767 C66.3153559,265.220178 65.6903559,265.5 65,265.5 C64.3096441,265.5 63.6846441,265.220178 63.232233,264.767767 C62.779822,264.315356 62.5,263.690356 62.5,263 C62.5,262.309644 62.779822,261.684644 63.232233,261.232233 C63.6846441,260.779822 64.3096441,260.5 65,260.5 Z M87,252.5 C87.6903559,252.5 88.3153559,252.779822 88.767767,253.232233 C89.220178,253.684644 89.5,254.309644 89.5,255 C89.5,255.690356 89.220178,256.315356 88.767767,256.767767 C88.3153559,257.220178 87.6903559,257.5 87,257.5 C86.3096441,257.5 85.6846441,257.220178 85.232233,256.767767 C84.779822,256.315356 84.5,255.690356 84.5,255 C84.5,254.309644 84.779822,253.684644 85.232233,253.232233 C85.6846441,252.779822 86.3096441,252.5 87,252.5 Z" id="Vector" stroke="#7E8390" fill="#FFFFFF"></path>
            <text id="Line" font-family="Roboto-Regular, Roboto" font-size="10" font-weight="normal" fill="#6C7281">
                <tspan x="47" y="237">Line</tspan>
            </text>
            <path d="M217.063499,173.045628 C211.184389,168.576571 202.760969,169.025827 197.393398,174.393398 C191.535534,180.251263 191.535534,189.748737 197.393398,195.606602 C202.768165,200.981368 211.206979,201.424625 217.087129,196.936372 L205.129942,184.979185 L217.063499,173.045628 Z" id="Vector" fill="#4E80F4"></path>
            <path d="M218.564971,174.372583 L207.958369,184.979185 L218.564971,195.585786 C224.422836,189.727922 224.422836,180.230447 218.564971,174.372583 Z" id="Vector" fill="#C7CACF"></path>
            <text id="Pie" font-family="Roboto-Regular, Roboto" font-size="10" font-weight="normal" fill="#6C7281">
                <tspan x="183" y="157">Pie</tspan>
            </text>
            <g id="input">
                <use fill="black" fill-opacity="1" filter="url(#filter-32)" xlink:href="#path-31"></use>
                <rect stroke="#A3A7B0" stroke-width="1" stroke-linejoin="square" fill="#FFFFFF" fill-rule="evenodd" x="114.5" y="160.5" width="51" height="51" rx="4"></rect>
            </g>
            <path d="M133,184 C133.552285,184 134,184.447715 134,185 L134,199 C134,199.552285 133.552285,200 133,200 L127,200 C126.447715,200 126,199.552285 126,199 L126,185 C126,184.447715 126.447715,184 127,184 L133,184 Z M143,168 C143.552285,168 144,168.447715 144,169 L144,199 C144,199.552285 143.552285,200 143,200 L137,200 C136.447715,200 136,199.552285 136,199 L136,169 C136,168.447715 136.447715,168 137,168 L143,168 Z M153,178 C153.552285,178 154,178.447715 154,179 L154,199 C154,199.552285 153.552285,200 153,200 L147,200 C146.447715,200 146,199.552285 146,199 L146,179 C146,178.447715 146.447715,178 147,178 L153,178 Z" id="Vector" fill="#4E80F4"></path>
            <text id="Bar" font-family="Roboto-Regular, Roboto" font-size="10" font-weight="normal" fill="#6C7281">
                <tspan x="115" y="157">Bar</tspan>
            </text>
            <path d="M88,192 L88,199 C88,199.552285 87.5522847,200 87,200 L73,200 L73,192 L88,192 Z M71,192 L71,200 L57,200 C56.4477153,200 56,199.552285 56,199 L56,192 L71,192 Z M88,182 L88,190 L73,190 L73,182 L88,182 Z M71,182 L71,190 L56,190 L56,182 L71,182 Z M87,172 C87.5522847,172 88,172.447715 88,173 L88,180 L56,180 L56,173 C56,172.447715 56.4477153,172 57,172 L87,172 Z" id="Vector" fill="#4E80F4"></path>
            <text id="Table" font-family="Roboto-Regular, Roboto" font-size="10" font-weight="normal" fill="#6C7281">
                <tspan x="47" y="157">Table</tspan>
            </text>
            <text id="Heading" font-family="Roboto-Medium, Roboto" font-size="14" font-weight="400" fill="#474F61">
                <tspan x="123.468262" y="124.948905">Chart</tspan>
            </text>
            <rect id="Rectangle" stroke="#C7CACF" x="12.5" y="131.572993" width="255" height="1"></rect>
            <g id="Rectangle">
                <use fill="black" fill-opacity="1" filter="url(#filter-34)" xlink:href="#path-33"></use>
                <path stroke="#B5B9C0" stroke-width="1" d="M265,61.120438 C265.690356,61.120438 266.315356,61.40026 266.767767,61.852671 C267.220178,62.305082 267.5,62.930082 267.5,63.620438 L267.5,63.620438 L267.5,83.5766423 C267.5,84.2669983 267.220178,84.8919983 266.767767,85.3444093 C266.315356,85.7968203 265.690356,86.0766423 265,86.0766423 L265,86.0766423 L16,86.0766423 C15.0335017,86.0766423 14.1585017,85.6848915 13.5251263,85.0515161 C12.8917508,84.4181406 12.5,83.5431406 12.5,82.5766423 L12.5,82.5766423 L12.5,64.620438 C12.5,63.6539396 12.8917508,62.7789396 13.5251263,62.1455642 C14.1585017,61.5121888 15.0335017,61.120438 16,61.120438 L16,61.120438 Z" stroke-linejoin="square" fill="#FFFFFF" fill-rule="evenodd"></path>
            </g>
            <path d="M182.666667,60.620438 L264,60.620438 C266.209139,60.620438 268,62.411299 268,64.620438 L268,82.5766423 C268,84.7857813 266.209139,86.5766423 264,86.5766423 L182.666667,86.5766423 L182.666667,86.5766423 L182.666667,60.620438 Z" id="Rectangle"></path>
            <rect id="Rectangle" x="97.3333333" y="60.620438" width="85.3333333" height="25.9562044"></rect>
            <path d="M16,61.5474453 L98,61.5474453 L98,61.5474453 L98,85.649635 L16,85.649635 C14.3431458,85.649635 13,84.3064893 13,82.649635 L13,64.5474453 C13,62.890591 14.3431458,61.5474453 16,61.5474453 Z" id="Rectangle" fill="#4E80F4"></path>
            <text id="Style" font-family="Roboto-Medium, Roboto" font-size="12" font-weight="400" fill="#474F61">
                <tspan x="126.210938" y="77.5985401">Style</tspan>
            </text>
            <text id="Settings" font-family="Roboto-Medium, Roboto" font-size="12" font-weight="400" fill="#474F61">
                <tspan x="200.822266" y="77.620438">Advanced</tspan>
            </text>
            <text id="Content" font-family="Roboto-Medium, Roboto" font-size="12" font-weight="400" fill="#FFFFFF">
                <tspan x="32.0585654" y="77.620438">Content</tspan>
            </text>
            <text id="Title" font-family="Roboto-Regular, Roboto" font-size="14" font-weight="normal" fill="#474F61">
                <tspan x="37" y="34.8467153">Orders by Employee</tspan>
            </text>
            <g id="vector" transform="translate(12.000000, 18.000000)" fill="#474F61">
                <path d="M13.7781746,8.91517459 L13.7781746,18.1781746 L11.7781746,21.7781746 L9.77817459,18.1781746 L9.77817459,8.91517459 L13.7781746,8.91517459 Z M12.7781746,3.77817459 C13.3304593,3.77817459 13.7781746,4.22588984 13.7781746,4.77817459 L13.7781746,7.38817459 L9.77817459,7.38817459 L9.77817459,4.77817459 C9.77817459,4.22588984 10.2258898,3.77817459 10.7781746,3.77817459 L12.7781746,3.77817459 Z" transform="translate(11.778175, 12.778175) rotate(45.000000) translate(-11.778175, -12.778175) "></path>
            </g>
            <g id="Group" transform="translate(233.000000, 22.613139)">
                <path d="M10,4 C12.097649,4 14.0231779,4.83314486 15.5580841,5.90757922 C17.5193878,7.28049183 19,9.07581281 19,10 C19,10.9241872 17.5193878,12.7195082 15.5580841,14.0924208 C14.0231779,15.1668551 12.097649,16 10,16 C7.90235097,16 5.97682212,15.1668551 4.44191588,14.0924208 C2.48061216,12.7195082 1,10.9241872 1,10 C1,9.07581281 2.48061216,7.28049183 4.44191588,5.90757922 C5.97682212,4.83314486 7.90235097,4 10,4 L10,4 Z" id="Oval" stroke="#474F61" stroke-width="2"></path>
                <path d="M9.99685425,6 C12.2059932,6 13.9968542,7.790861 13.9968542,10 C13.9968542,12.209139 12.2059932,14 9.99685425,14 C7.78771525,14 5.99685425,12.209139 5.99685425,10 C5.99685425,9.61281266 6.05186633,9.23847407 6.1545007,8.88437406 L7.88149278,8.88463853 C8.43377753,8.88463853 8.88149278,8.43692328 8.88149278,7.88463853 L8.88149278,7.88463853 L8.88122831,6.15764645 C9.23532832,6.05501208 9.60966691,6 9.99685425,6 Z" id="Combined-Shape" fill="#474F61" transform="translate(9.996854, 10.000000) rotate(-45.000000) translate(-9.996854, -10.000000) "></path>
            </g>
            <rect id="Rectangle" stroke="#979797" fill="#D8D8D8" transform="translate(116.500000, 41.616788) scale(1, -1) translate(-116.500000, -41.616788) " x="12.5" y="41.6532847" width="208" height="1"></rect>
            <path d="M263,26.3211679 C261.895431,26.3211679 261,25.4910973 261,24.4671533 C261,23.4432093 261.895431,22.6131387 263,22.6131387 C264.104569,22.6131387 265,23.4432093 265,24.4671533 C265,25.4910973 264.104569,26.3211679 263,26.3211679 Z M263,33.7372263 C261.895431,33.7372263 261,32.9071557 261,31.8832117 C261,30.8592677 261.895431,30.0291971 263,30.0291971 C264.104569,30.0291971 265,30.8592677 265,31.8832117 C265,32.9071557 264.104569,33.7372263 263,33.7372263 Z M263,41.1532847 C261.895431,41.1532847 261,40.3232141 261,39.2992701 C261,38.2753261 261.895431,37.4452555 263,37.4452555 C264.104569,37.4452555 265,38.2753261 265,39.2992701 C265,40.3232141 264.104569,41.1532847 263,41.1532847 Z" id="Shape" fill="#474F61"></path>
            <text id="Header-for-280px" font-family="Roboto-Medium, Roboto" font-size="14" font-weight="400" fill="#474F61">
                <tspan x="125.024902" y="333">Data</tspan>
            </text>
            <rect id="Rectangle" stroke="#C7CACF" x="12.5" y="340.5" width="255" height="1"></rect>
            <g id="input">
                <use fill="black" fill-opacity="1" filter="url(#filter-36)" xlink:href="#path-35"></use>
                <rect stroke="#9195A0" stroke-width="1" stroke-linejoin="square" fill="#FFFFFF" fill-rule="evenodd" x="22.5" y="467.5" width="69" height="27" rx="3"></rect>
            </g>
            <text id="Add" font-family="Roboto-Regular, Roboto" font-size="12" font-weight="normal" fill="#474F61">
                <tspan x="54" y="485">Add</tspan>
            </text>
            <path d="M42,474 C42.5522847,474 43,474.447715 43,475 L43,479 L47,479 C47.5522847,479 48,479.447715 48,480 L48,482 C48,482.552285 47.5522847,483 47,483 L43,483 L43,487 C43,487.552285 42.5522847,488 42,488 L40,488 C39.4477153,488 39,487.552285 39,487 L39,483 L35,483 C34.4477153,483 34,482.552285 34,482 L34,480 C34,479.447715 34.4477153,479 35,479 L39,479 L39,475 C39,474.447715 39.4477153,474 40,474 L42,474 Z" id="Combined-Shape-Copy-3" fill="#596070"></path>
            <g id="input">
                <use fill="black" fill-opacity="1" filter="url(#filter-38)" xlink:href="#path-37"></use>
                <rect stroke="#9195A0" stroke-width="1" stroke-linejoin="square" fill="#FFFFFF" fill-rule="evenodd" x="22.5" y="635.5" width="69" height="27" rx="3"></rect>
            </g>
            <text id="Add" font-family="Roboto-Regular, Roboto" font-size="12" font-weight="normal" fill="#474F61">
                <tspan x="54" y="653">Add</tspan>
            </text>
            <path d="M42,642 C42.5522847,642 43,642.447715 43,643 L43,647 L47,647 C47.5522847,647 48,647.447715 48,648 L48,650 C48,650.552285 47.5522847,651 47,651 L43,651 L43,655 C43,655.552285 42.5522847,656 42,656 L40,656 C39.4477153,656 39,655.552285 39,655 L39,651 L35,651 C34.4477153,651 34,650.552285 34,650 L34,648 C34,647.447715 34.4477153,647 35,647 L39,647 L39,643 C39,642.447715 39.4477153,642 40,642 L42,642 Z" id="Combined-Shape-Copy-3" fill="#596070"></path>
            <text id="Groups" font-family="Roboto-Bold, Roboto" font-size="12" font-weight="bold" fill="#474F61">
                <tspan x="23" y="368">Groups</tspan>
            </text>
            <text id="Values" font-family="Roboto-Bold, Roboto" font-size="12" font-weight="bold" fill="#474F61">
                <tspan x="23" y="534">Values</tspan>
            </text>
            <g id="filterChoices">
                <use fill="black" fill-opacity="1" filter="url(#filter-40)" xlink:href="#path-39"></use>
                <rect stroke-opacity="0.3" stroke="#474F61" stroke-width="1" stroke-linejoin="square" fill="#F4F5F6" fill-rule="evenodd" x="22.5" y="383.5" width="235" height="63" rx="4"></rect>
            </g>
            <rect id="Rectangle" stroke="#C7CACF" fill="#F6F6F7" x="225.5" y="395.5" width="1" height="39" rx="0.5"></rect>
            <rect id="Rectangle" stroke="#A3A7B0" fill="#FFFFFF" x="40.5" y="407.5" width="172" height="27" rx="3"></rect>
            <g id="input">
                <use fill="black" fill-opacity="1" filter="url(#filter-42)" xlink:href="#path-41"></use>
                <path stroke="#A3A7B0" stroke-width="1" d="M214,407.5 C214.690356,407.5 215.315356,407.779822 215.767767,408.232233 C216.220178,408.684644 216.5,409.309644 216.5,410 L216.5,410 L216.5,432 C216.5,432.690356 216.220178,433.315356 215.767767,433.767767 C215.315356,434.220178 214.690356,434.5 214,434.5 L214,434.5 L191.5,434.5 L191.5,407.5 L214,407.5 Z" stroke-linejoin="square" fill="#FFFFFF" fill-rule="evenodd"></path>
            </g>
            <path d="M208.129883,414 C208.560246,414 208.909091,414.31102 208.909091,414.694626 C208.909091,415.078233 208.5602,415.389253 208.129883,415.389253 L208.129883,415.389253 L207.470364,415.389253 C207.063799,415.389253 206.680191,415.481972 206.342872,415.647528 C206.005833,415.813125 205.717042,416.05185 205.506643,416.342029 C205.366331,416.535538 205.260502,416.751759 205.197182,416.986823 L205.197182,416.986823 L204.927,417.989 L206.820753,417.989717 C207.371618,417.989717 207.818182,418.436282 207.818182,418.987147 C207.818182,419.538012 207.371618,419.984576 206.820753,419.984576 L204.39,419.984 L203.227255,424.303923 C203.143338,424.6156 203.013282,424.909866 202.84466,425.18046 L202.711081,425.378869 C202.476792,425.701952 202.185294,425.98581 201.850868,426.220874 C201.182623,426.690918 200.338369,426.966581 199.438727,426.966581 L199.438727,426.966581 L198.779207,426.966581 C198.348891,426.966581 198,426.655561 198,426.271955 C198,425.888348 198.348891,425.577328 198.779207,425.577328 L198.779207,425.577328 L199.438727,425.577328 C199.845292,425.577245 200.2289,425.484609 200.566219,425.319053 C200.903258,425.153456 201.192049,424.914731 201.402447,424.624552 C201.54276,424.431043 201.648589,424.214822 201.711909,423.979758 L201.711909,423.979758 L202.787,419.984 L202.270157,419.984576 C201.719292,419.984576 201.272727,419.538012 201.272727,418.987147 C201.272727,418.436282 201.719292,417.989717 202.270157,417.989717 L203.324,417.989 L203.681836,416.662658 C203.765752,416.350981 203.895809,416.056715 204.064431,415.786121 L204.19801,415.587712 C204.432299,415.26467 204.723796,414.980771 205.058222,414.745707 C205.726468,414.275663 206.570722,414 207.470364,414 L207.470364,414 Z M208.448072,421.225477 C208.803125,420.900898 209.378712,420.900898 209.73371,421.225477 C210.088763,421.550105 210.088763,422.07632 209.73371,422.400949 L209.73371,422.400949 L208.558366,423.475578 L209.73371,424.550208 C210.088763,424.874787 210.088763,425.401051 209.73371,425.72568 C209.378712,426.050309 208.803125,426.050309 208.448072,425.72568 L208.448072,425.72568 L207.272727,424.651051 L206.097383,425.72568 C205.742384,426.050309 205.166797,426.050309 204.811744,425.72568 C204.456691,425.401051 204.456691,424.874836 204.811744,424.550208 L204.811744,424.550208 L205.987089,423.475578 L204.811744,422.400949 C204.456691,422.07637 204.456691,421.550105 204.811744,421.225477 C205.166797,420.900848 205.74233,420.900848 206.097383,421.225477 L206.097383,421.225477 L207.272727,422.300106 Z" id="vector" fill="#474F61" fill-rule="nonzero"></path>
            <text id="Agent.LastName" font-family="Roboto-Regular, Roboto" font-size="12" font-weight="normal" fill="#474F61">
                <tspan x="48" y="425">Agent.LastName</tspan>
            </text>
            <text id="Field" font-family="Roboto-Regular, Roboto" font-size="10" font-weight="normal" fill="#6C7281">
                <tspan x="41" y="404">Field</tspan>
            </text>
            <g id="Group" transform="translate(173.000000, 415.000000)" fill="#474F61" fill-rule="nonzero">
                <g id="ArrowTriangle">
                    <path d="M3.12413794,3.04 C2.02280597,3.04 1.6696743,3.75657875 2.33357922,4.63811074 L5.40198595,8.71233673 C5.73172087,9.15015829 6.26773924,9.14828288 6.59606174,8.71233673 L9.66446847,4.63811074 C10.3291869,3.75549855 9.96937044,3.04 8.87390975,3.04 L3.12413794,3.04 Z"></path>
                </g>
            </g>
            <circle id="Oval-Copy" fill="#7E8390" cx="31" cy="409" r="1"></circle>
            <circle id="Oval-Copy-2" fill="#7E8390" cx="31" cy="413" r="1"></circle>
            <circle id="Oval-Copy-2" fill="#7E8390" cx="31" cy="417" r="1"></circle>
            <circle id="Oval-Copy-2" fill="#7E8390" cx="31" cy="421" r="1"></circle>
            <g id="Icon/Misc/CloseButtonSmall_Black-Copy-4" transform="translate(234.000000, 407.000000)" fill="#474F61">
                <polygon id="Vector" points="3.33333324 2.66666667 2.66666667 3.33333324 7.33333337 7.99999999 2.66666667 12.6666667 3.33333346 13.3333332 7.99999997 8.6666666 12.6666665 13.3333332 13.3333333 12.6666667 8.66666658 7.99999999 13.3333333 3.33333324 12.6666667 2.66666667 7.99999997 7.33333338"></polygon>
            </g>
            <g id="filterChoices">
                <use fill="black" fill-opacity="1" filter="url(#filter-44)" xlink:href="#path-43"></use>
                <rect stroke-opacity="0.3" stroke="#474F61" stroke-width="1" stroke-linejoin="square" fill="#F6F6F7" fill-rule="evenodd" x="22.5" y="549.5" width="235" height="65" rx="4"></rect>
            </g>
            <text id="Count-of" font-family="Roboto-Regular, Roboto" font-size="12" font-weight="normal" fill="#474F61">
                <tspan x="40" y="586">Count of</tspan>
            </text>
            <text id="Orders.OrderID" font-family="Roboto-Bold, Roboto" font-size="12" font-weight="bold" fill="#474F61">
                <tspan x="40" y="568">Orders.OrderID</tspan>
            </text>
            <circle id="Oval-Copy" fill="#7E8390" cx="31" cy="576" r="1"></circle>
            <circle id="Oval-Copy-2" fill="#7E8390" cx="31" cy="580" r="1"></circle>
            <circle id="Oval-Copy-2" fill="#7E8390" cx="31" cy="584" r="1"></circle>
            <circle id="Oval-Copy-2" fill="#7E8390" cx="31" cy="588" r="1"></circle>
            <rect id="Rectangle" stroke="#C7CACF" fill="#F6F6F7" x="225.5" y="561.5" width="1" height="41" rx="0.5"></rect>
            <path d="M209.125609,580 C208.024277,580 207.671146,580.716579 208.33505,581.598111 L211.403457,585.672337 C211.733192,586.110158 212.26921,586.108283 212.597533,585.672337 L215.66594,581.598111 C216.330658,580.715499 215.970842,580 214.875381,580 L209.125609,580 Z" id="Vector" fill="#474F61" fill-rule="nonzero" transform="translate(212.000000, 583.000000) rotate(-360.000000) translate(-212.000000, -583.000000) "></path>
            <g id="Icon/Misc/CloseButtonSmall_Black-Copy-4" transform="translate(234.000000, 575.000000)" fill="#474F61">
                <polygon id="Vector" points="3.33333324 2.66666667 2.66666667 3.33333324 7.33333337 7.99999999 2.66666667 12.6666667 3.33333346 13.3333332 7.99999997 8.6666666 12.6666665 13.3333332 13.3333333 12.6666667 8.66666658 7.99999999 13.3333333 3.33333324 12.6666667 2.66666667 7.99999997 7.33333338"></polygon>
            </g>
            <text id="Orders.OrderID" font-family="Roboto-Regular, Roboto" font-size="12" font-weight="normal" fill="#474F61">
                <tspan x="40" y="604">Orders.OrderID</tspan>
            </text>
            <g id="ChartType-Copy-4" transform="translate(46.000000, 147.000000)">
                <g id="ChartTypeKPI" transform="translate(136.000000, 80.000000)"></g>
                <g id="ChartTypeScatter" filter="url(#filter-45)" transform="translate(68.000000, 80.000000)"></g>
                <g id="ChartTypeLine" transform="translate(0.000000, 80.000000)"></g>
                <g id="ChartTypePie" transform="translate(136.000000, 0.000000)"></g>
                <g id="ChartTypeBar" transform="translate(68.000000, 0.000000)"></g>
                <g id="ChartTypeTable"></g>
            </g>
            <g id="header-copy-5" transform="translate(12.000000, 21.000000)">
                <g id="Group-2" transform="translate(0.000000, 38.620438)"></g>
                <g id="Icon/Navigation/MoreOptions_Black" transform="translate(249.000000, 0.613139)"></g>
            </g>
            <g id="component/Header/280px-Copy-4" transform="translate(12.000000, 319.000000)"></g>
            <g id="addSeries-Copy" transform="translate(22.000000, 466.000000)"></g>
            <g id="addSeries-Copy-2" transform="translate(22.000000, 634.000000)"></g>
            <g id="Input/Dropdown/Regular/216px" transform="translate(40.000000, 394.000000)"></g>
            <g id="DragHandle" transform="translate(30.000000, 407.000000)"></g>
            <g id="DragHandle" transform="translate(30.000000, 574.000000)"></g>
            <g id="DownArrow" transform="translate(207.000000, 577.000000)"></g>
            <g id="chooseFilters-Copy-15" transform="translate(30.000000, 407.000000)"></g>
        </g>
        <g id="topToolbar" transform="translate(-11.000000, -2.000000)">
            <g id="bg-+-bottom-border">
                <use fill="black" fill-opacity="1" filter="url(#filter-47)" xlink:href="#path-46"></use>
                <use stroke="#C7CACF" stroke-width="1" fill="#FFFFFF" fill-rule="evenodd" xlink:href="#path-46"></use>
            </g>
            <rect id="Rectangle" stroke="#DADCDF" x="323.5" y="30.5" width="1" height="15"></rect>
            <rect id="Rectangle-Copy" stroke="#DADCDF" x="203.5" y="29.5" width="1" height="15"></rect>
            <g id="Run-Button" transform="translate(442.000000, 17.000000)">
                <g id="Rectangle-5">
                    <use fill="black" fill-opacity="1" filter="url(#filter-49)" xlink:href="#path-48"></use>
                    <use fill="#4E80F4" fill-rule="evenodd" xlink:href="#path-48"></use>
                </g>
                <g id="Run" fill="#FFFFFF" fill-opacity="1">
                    <use filter="url(#filter-51)" xlink:href="#text-50"></use>
                    <use xlink:href="#text-50"></use>
                </g>
                <g id="Triangle-4" transform="translate(6.000000, 2.000000)" fill="#FFFFFF" stroke="#3E66C3">
                    <path d="M13.5256584,7.04911101 C13.8898422,6.92771639 14.3003365,6.94525323 14.6708204,7.13049517 C14.9611115,7.27564072 15.1964952,7.51102446 15.3416408,7.80131556 L15.3416408,7.80131556 L20.1055728,17.3291796 C20.2908147,17.6996635 20.3083516,18.1101578 20.186957,18.4743416 C20.0655624,18.8385255 19.8052363,19.1563988 19.4347524,19.3416408 C19.2264693,19.4457824 18.9967997,19.5 18.763932,19.5 L18.763932,19.5 L9.23606798,19.5 C8.82185442,19.5 8.44685442,19.3321068 8.17540781,19.0606602 C7.9039612,18.7892136 7.73606798,18.4142136 7.73606798,18 C7.73606798,17.7671324 7.79028562,17.5374628 7.89442719,17.3291796 L7.89442719,17.3291796 L12.6583592,7.80131556 C12.8436012,7.43083169 13.1614745,7.17050562 13.5256584,7.04911101 Z" transform="translate(14.000000, 12.000000) rotate(90.000000) translate(-14.000000, -12.000000) "></path>
                </g>
            </g>
            <g id="Canvas" transform="translate(270.000000, 8.000000)">
                <g id="Group" transform="translate(1.000000, 17.000000)" fill="#474F61">
                    <g id="FormatPaintbrush" transform="translate(4.000000, 1.000000)">
                        <path d="M7.92963513,14.9886842 C9.03353175,14.9501353 9.95966686,15.8137702 9.99821577,16.9176669 C10.0239151,17.6535979 9.35611682,18.9780782 7.99482106,20.8911077 C6.84766819,19.2528036 6.18294532,17.974856 6.00065247,17.0572648 C5.72721318,15.6808782 6.8257385,15.0272331 7.92963513,14.9886842 Z M8.03433362,-0.013143317 C9.03433362,-0.013143317 10.0343336,4.98685668 10.0343336,7.98685668 L10.0343336,11.9868567 L10.0343336,11.9868567 C10.0343336,13.0914262 9.13890312,13.9868567 8.03433362,13.9868567 C6.92976412,13.9868567 6.03433362,13.0914262 6.03433362,11.9868567 L6.03433362,7.98685668 L6.03433362,7.98685668 C6.03433362,4.98685668 7.03433362,-0.013143317 8.03433362,-0.013143317 Z" id="vector" transform="translate(7.996324, 10.438982) rotate(35.000000) translate(-7.996324, -10.438982) "></path>
                    </g>
                </g>
                <g id="Group" transform="translate(19.000000, 25.000000)" fill="#474F61" fill-rule="nonzero">
                    <g id="ArrowTriangle">
                        <path d="M3.12413794,3.04 C2.02280597,3.04 1.6696743,3.75657875 2.33357922,4.63811074 L5.40198595,8.71233673 C5.73172087,9.15015829 6.26773924,9.14828288 6.59606174,8.71233673 L9.66446847,4.63811074 C10.3291869,3.75549855 9.96937044,3.04 8.87390975,3.04 L3.12413794,3.04 Z"></path>
                    </g>
                </g>
                <text font-family="Roboto-Regular, Roboto" font-size="10" font-weight="normal" fill="#6C7281">
                    <tspan x="0" y="9">Canvas</tspan>
                </text>
            </g>
            <g id="Filter" transform="translate(224.000000, 8.000000)">
                <g id="Group" transform="translate(2.000000, 19.000000)" fill="#474F61">
                    <g id="FilterMenu" transform="translate(1.000000, 3.000000)">
                        <path d="M7,8.99077797 C7,8.44358641 6.69921875,7.65625 6.34145699,7.24737942 L1.31664646,1.50473881 C0.589482698,0.673694512 0.890058413,1.37255699e-15 2.00010618,3.08435905e-15 L14.9998938,2.3131301e-14 C16.104522,2.48347455e-14 16.4152239,0.66831553 15.6833535,1.50473881 L10.658543,7.24737942 C10.2948397,7.66304029 10,8.45097518 10,8.99077797 L10,13.009222 C10,13.5564136 9.55733967,14 9.00104344,14 L7.99895656,14 C7.44724809,14 7,13.5490248 7,13.009222 L7,8.99077797 Z" id="Vector"></path>
                    </g>
                </g>
                <text font-family="Roboto-Regular, Roboto" font-size="10" font-weight="normal" fill="#6C7281">
                    <tspan x="3" y="9">Filter</tspan>
                </text>
                <g id="Group" transform="translate(18.000000, 25.000000)" fill="#474F61" fill-rule="nonzero">
                    <g id="ArrowTriangle">
                        <path d="M3.12413794,3.04 C2.02280597,3.04 1.6696743,3.75657875 2.33357922,4.63811074 L5.40198595,8.71233673 C5.73172087,9.15015829 6.26773924,9.14828288 6.59606174,8.71233673 L9.66446847,4.63811074 C10.3291869,3.75549855 9.96937044,3.04 8.87390975,3.04 L3.12413794,3.04 Z"></path>
                    </g>
                </g>
            </g>
            <g id="Refresh" transform="translate(148.000000, 8.000000)">
                <text font-family="Roboto-Regular, Roboto" font-size="10" font-weight="normal" fill="#6C7281">
                    <tspan x="0" y="9">Refresh</tspan>
                </text>
                <g id="Vector" transform="translate(5.500000, 17.000000)" fill="#474F61">
                    <path d="M15.0059191,12 C13.8980806,12 13.6335493,11.3664507 14.4165545,10.5834455 L16.0002202,8.99980567 C15.0880049,7.7854695 13.6357306,7 12,7 C9.23857625,7 7,9.23857625 7,12 C7,14.7614237 9.23857625,17 12,17 C13.6352792,17 15.0872034,16.2149639 15.9994649,15.0011995 L18.3260191,15.0007361 C17.2024047,17.3652866 14.7921062,19 12,19 C8.13400675,19 5,15.8659932 5,12 C5,8.13400675 8.13400675,5 12,5 C14.1875078,5 16.1406575,6.00340667 17.4242957,7.57506675 L18.5834455,6.41655445 C19.365787,5.63421303 20,5.88655484 20,7.00591905 L20,10.9970707 C20,11.5114088 19.622439,11.9353182 19.1160927,11.9932526 L19,12 L19,12 L15.0059191,12 Z"></path>
                </g>
            </g>
            <g id="Undo" transform="translate(82.000000, 8.000000)">
                <g id="Vector" transform="translate(0.000000, 17.000000)" fill="#474F61">
                    <path d="M13.0360934,13.5706577 L13.0360934,16.5612888 C13.0360934,17.1187479 13.397834,17.3071406 13.8387247,16.985965 L19.733462,12.6918271 C20.1767431,12.3689102 20.1743528,11.8400986 19.733462,11.5146344 L13.8387247,7.1631577 C13.3954437,6.83592899 13.0360934,7.01401089 13.0360934,7.58002661 L13.0360934,10.5706577 C10.0365939,10.6003138 4,12.5261256 4,17.4360667 C5.72259392,14.8746297 10.2119883,13.4698271 13.0360934,13.5706577 Z" transform="translate(12.032514, 12.218033) scale(-1, 1) translate(-12.032514, -12.218033) "></path>
                </g>
                <g id="Vector" transform="translate(26.000000, 17.000000)" fill="#474F61">
                    <path d="M13.0360934,13.5706577 L13.0360934,16.5612888 C13.0360934,17.1187479 13.397834,17.3071406 13.8387247,16.985965 L19.733462,12.6918271 C20.1767431,12.3689102 20.1743528,11.8400986 19.733462,11.5146344 L13.8387247,7.1631577 C13.3954437,6.83592899 13.0360934,7.01401089 13.0360934,7.58002661 L13.0360934,10.5706577 C10.0365939,10.6003138 4,12.5261256 4,17.4360667 C5.72259392,14.8746297 10.2119883,13.4698271 13.0360934,13.5706577 Z"></path>
                </g>
                <text font-family="Roboto-Regular, Roboto" font-size="10" font-weight="normal" fill="#6C7281">
                    <tspan x="13" y="9">Undo</tspan>
                </text>
            </g>
            <g id="NewTile" transform="translate(27.000000, 8.000000)">
                <text id="New-Tile" font-family="Roboto-Regular, Roboto" font-size="10" font-weight="normal" fill="#6C7281">
                    <tspan x="0" y="9">New Tile</tspan>
                </text>
                <g id="newTile" transform="translate(3.000000, 13.000000)" filter="url(#filter-52)">
                    <rect id="filterChoices" fill="#4E80F4" x="0" y="0" width="32" height="32" rx="4"></rect>
                    <path d="M18,6.5 C18.4142136,6.5 18.7892136,6.66789322 19.0606602,6.93933983 C19.3321068,7.21078644 19.5,7.58578644 19.5,8 L19.5,8 L19.5,12.5 L24,12.5 C24.4142136,12.5 24.7892136,12.6678932 25.0606602,12.9393398 C25.3321068,13.2107864 25.5,13.5857864 25.5,14 L25.5,14 L25.5,18 C25.5,18.4142136 25.3321068,18.7892136 25.0606602,19.0606602 C24.7892136,19.3321068 24.4142136,19.5 24,19.5 L24,19.5 L19.5,19.5 L19.5,24 C19.5,24.4142136 19.3321068,24.7892136 19.0606602,25.0606602 C18.7892136,25.3321068 18.4142136,25.5 18,25.5 L18,25.5 L14,25.5 C13.5857864,25.5 13.2107864,25.3321068 12.9393398,25.0606602 C12.6678932,24.7892136 12.5,24.4142136 12.5,24 L12.5,24 L12.5,19.5 L8,19.5 C7.58578644,19.5 7.21078644,19.3321068 6.93933983,19.0606602 C6.66789322,18.7892136 6.5,18.4142136 6.5,18 L6.5,18 L6.5,14 C6.5,13.5857864 6.66789322,13.2107864 6.93933983,12.9393398 C7.21078644,12.6678932 7.58578644,12.5 8,12.5 L8,12.5 L12.5,12.5 L12.5,8 C12.5,7.58578644 12.6678932,7.21078644 12.9393398,6.93933983 C13.2107864,6.66789322 13.5857864,6.5 14,6.5 L14,6.5 Z" id="Combined-Shape" stroke="#3E66C3" fill="#FFFFFF"></path>
                    <g id="dragHandle" transform="translate(21.000000, 21.000000)" fill="#FFFFFF">
                        <circle id="Oval" cx="7" cy="7" r="1"></circle>
                        <circle id="Oval" cx="7" cy="4" r="1"></circle>
                        <circle id="Oval" cx="4" cy="7" r="1"></circle>
                        <circle id="Oval" cx="1" cy="7.15384615" r="1"></circle>
                        <circle id="Oval" cx="7" cy="1" r="1"></circle>
                        <circle id="Oval" cx="4" cy="4" r="1"></circle>
                    </g>
                </g>
            </g>
            <g id="Export" transform="translate(393.000000, 8.000000)">
                <text font-family="Roboto-Regular, Roboto" font-size="10" font-weight="normal" fill="#6C7281">
                    <tspan x="0" y="9">Export</tspan>
                </text>
                <g id="Vector" transform="translate(0.000000, 17.000000)" fill="#474F61">
                    <path d="M8.597,6.039 L8.57,8.033 L5.99154604,8.0332853 C5.48071091,8.0332853 5.06016307,8.41721236 5.00269111,8.91182869 L4.99599765,9.02781144 L4.99599765,16.0115257 C4.99599765,16.5487553 5.44171985,17.0060519 5.99154604,17.0060519 L5.99154604,17.0060519 L12.9824387,17.0060519 C13.5325688,17.0060519 13.9779871,16.5607874 13.9779871,16.0115257 L13.9779871,16.0115257 L13.977,14.015 L15.973,14.015 L15.9739847,17.0033001 C15.9739847,18.106047 15.0822302,19 13.9752325,19 L4.99875226,19 C3.89487187,19 3,18.1091612 3,17.0033001 L3,8.03603708 C3,6.93329017 3.89175451,6.03933718 4.99875226,6.03933718 L8.597,6.039 Z M15.9739847,4.57463949 C15.9739847,4.02270733 16.3365982,3.83533893 16.7839046,4.15813823 L16.7839046,4.15813823 L20.6530584,6.95031844 C21.1028301,7.27489682 21.1160899,7.8183246 20.6881814,8.16807205 L20.6881814,8.16807205 L16.7487816,11.3879078 C16.3173459,11.7405382 15.9739847,11.5730271 15.9739847,11.0202005 L15.9739847,11.0202005 L15.9739847,9.06454845 C13.1555312,8.96402293 10.7071397,11.2818706 8.98799295,13.8355569 C8.98799295,8.94047297 12.9804878,6.55985783 15.9739847,6.5302915 L15.9739847,6.5302915 Z"></path>
                </g>
                <g id="Group" transform="translate(21.000000, 25.000000)" fill="#474F61" fill-rule="nonzero">
                    <g id="ArrowTriangle">
                        <path d="M3.12413794,3.04 C2.02280597,3.04 1.6696743,3.75657875 2.33357922,4.63811074 L5.40198595,8.71233673 C5.73172087,9.15015829 6.26773924,9.14828288 6.59606174,8.71233673 L9.66446847,4.63811074 C10.3291869,3.75549855 9.96937044,3.04 8.87390975,3.04 L3.12413794,3.04 Z"></path>
                    </g>
                </g>
            </g>
            <g id="Save" transform="translate(344.000000, 8.000000)">
                <g id="Vector" transform="translate(0.000000, 17.000000)" fill="#474F61">
                    <path d="M16.9941413,5 C18.1019465,5 19,5.89706013 19,7.00585866 L19,16.9941413 C19,18.1019465 18.1029399,19 16.9941413,19 L16,19 L16,15.0029293 C16,14.4782419 15.6151063,14.0632033 15.1192446,14.006589 L15.0029699,14 L8.99703014,14 C8.45303631,14 8,14.4490268 8,15.0029293 L8,15.0029293 L8,19 L7.00585866,19 C5.89805351,19 5,18.1029399 5,16.9941413 L5,7.00585866 C5,5.89805351 5.89706013,5 7.00585866,5 L16.9941413,5 Z M12.9906311,16 C13.5480902,16 14,16.4426603 14,16.9989566 L14,18.0010434 C14,18.5527519 13.5566468,19 12.9906311,19 L11.0093689,19 C10.4519098,19 10,18.5573397 10,18.0010434 L10,16.9989566 C10,16.4472481 10.4433532,16 11.0093689,16 L12.9906311,16 Z M15.0029699,7 L8.99703014,7 C8.45303631,7 8,7.44762906 8,7.99980749 L8,7.99980749 L8,11.0001925 C8,11.5562834 8.4463856,12 8.99703014,12 L8.99703014,12 L15.0029699,12 C15.5469637,12 16,11.5523709 16,11.0001925 L16,11.0001925 L16,7.99980749 C16,7.44371665 15.5536144,7 15.0029699,7 L15.0029699,7 Z"></path>
                </g>
                <text font-family="Roboto-Regular, Roboto" font-size="10" font-weight="normal" fill="#6C7281">
                    <tspan x="5" y="9">Save</tspan>
                </text>
                <g id="Group" transform="translate(21.000000, 25.000000)" fill="#474F61" fill-rule="nonzero">
                    <g id="ArrowTriangle">
                        <path d="M3.12413794,3.04 C2.02280597,3.04 1.6696743,3.75657875 2.33357922,4.63811074 L5.40198595,8.71233673 C5.73172087,9.15015829 6.26773924,9.14828288 6.59606174,8.71233673 L9.66446847,4.63811074 C10.3291869,3.75549855 9.96937044,3.04 8.87390975,3.04 L3.12413794,3.04 Z"></path>
                    </g>
                </g>
            </g>
        </g>
    </g>
</svg>